<?xml version="1.0" encoding="utf-8" standalone="no"?>
<!DOCTYPE svg PUBLIC "-//W3C//DTD SVG 1.1//EN"
  "http://www.w3.org/Graphics/SVG/1.1/DTD/svg11.dtd">
<svg xmlns:xlink="http://www.w3.org/1999/xlink" width="720pt" height="720pt" viewBox="0 0 720 720" xmlns="http://www.w3.org/2000/svg" version="1.1">
 <metadata>
  <rdf:RDF xmlns:dc="http://purl.org/dc/elements/1.1/" xmlns:cc="http://creativecommons.org/ns#" xmlns:rdf="http://www.w3.org/1999/02/22-rdf-syntax-ns#">
   <cc:Work>
    <dc:type rdf:resource="http://purl.org/dc/dcmitype/StillImage"/>
    <dc:date>2022-03-08T05:15:25.799500</dc:date>
    <dc:format>image/svg+xml</dc:format>
    <dc:creator>
     <cc:Agent>
      <dc:title>Matplotlib v3.5.0, https://matplotlib.org/</dc:title>
     </cc:Agent>
    </dc:creator>
   </cc:Work>
  </rdf:RDF>
 </metadata>
 <defs>
  <style type="text/css">*{stroke-linejoin: round; stroke-linecap: butt}</style>
 </defs>
 <g id="figure_1">
  <g id="patch_1">
   <path d="M 0 720 
L 720 720 
L 720 0 
L 0 0 
z
" style="fill: #ffffff"/>
  </g>
  <g id="axes_1">
   <g id="patch_2">
    <path d="M 90 640.8 
L 648 640.8 
L 648 86.4 
L 90 86.4 
z
" style="fill: #ffffff"/>
   </g>
   <g id="PathCollection_1">
    <path d="M 115.363636 200.318801 
C 118.328697 200.318801 121.172716 199.14077 123.269331 197.044156 
C 125.365945 194.947541 126.543976 192.103522 126.543976 189.138462 
C 126.543976 186.173401 125.365945 183.329382 123.269331 181.232767 
C 121.172716 179.136153 118.328697 177.958122 115.363636 177.958122 
C 112.398576 177.958122 109.554557 179.136153 107.457942 181.232767 
C 105.361328 183.329382 104.183296 186.173401 104.183296 189.138462 
C 104.183296 192.103522 105.361328 194.947541 107.457942 197.044156 
C 109.554557 199.14077 112.398576 200.318801 115.363636 200.318801 
z
" clip-path="url(#p84cfd32ef6)" style="fill: #7fc97f; stroke: #ffffff"/>
    <path d="M 358.431818 138.986128 
C 365.694704 138.986128 372.661099 136.100553 377.796735 130.964917 
C 382.932371 125.829281 385.817946 118.862886 385.817946 111.6 
C 385.817946 104.337114 382.932371 97.370719 377.796735 92.235083 
C 372.661099 87.099447 365.694704 84.213872 358.431818 84.213872 
C 351.168932 84.213872 344.202537 87.099447 339.066901 92.235083 
C 333.931266 97.370719 331.04569 104.337114 331.04569 111.6 
C 331.04569 118.862886 333.931266 125.829281 339.066901 130.964917 
C 344.202537 136.100553 351.168932 138.986128 358.431818 138.986128 
z
" clip-path="url(#p84cfd32ef6)" style="fill: #ffff99; stroke: #ffffff"/>
    <path d="M 273.886364 235.909205 
C 281.14925 235.909205 288.115644 233.02363 293.25128 227.887994 
C 298.386916 222.752358 301.272492 215.785963 301.272492 208.523077 
C 301.272492 201.260191 298.386916 194.293796 293.25128 189.15816 
C 288.115644 184.022524 281.14925 181.136949 273.886364 181.136949 
C 266.623478 181.136949 259.657083 184.022524 254.521447 189.15816 
C 249.385811 194.293796 246.500236 201.260191 246.500236 208.523077 
C 246.500236 215.785963 249.385811 222.752358 254.521447 227.887994 
C 259.657083 233.02363 266.623478 235.909205 273.886364 235.909205 
z
" clip-path="url(#p84cfd32ef6)" style="fill: #ffff99; stroke: #ffffff"/>
    <path d="M 502.863636 618.755359 
C 510.126522 618.755359 517.092917 615.869783 522.228553 610.734148 
C 527.364189 605.598512 530.249764 598.632117 530.249764 591.369231 
C 530.249764 584.106345 527.364189 577.13995 522.228553 572.004314 
C 517.092917 566.868678 510.126522 563.983103 502.863636 563.983103 
C 495.60075 563.983103 488.634356 566.868678 483.49872 572.004314 
C 478.363084 577.13995 475.477508 584.106345 475.477508 591.369231 
C 475.477508 598.632117 478.363084 605.598512 483.49872 610.734148 
C 488.634356 615.869783 495.60075 618.755359 502.863636 618.755359 
z
" clip-path="url(#p84cfd32ef6)" style="fill: #ffff99; stroke: #ffffff"/>
    <path d="M 147.068182 563.565234 
C 151.261411 563.565234 155.283461 561.899247 158.248522 558.934186 
C 161.213583 555.969125 162.87957 551.947075 162.87957 547.753846 
C 162.87957 543.560617 161.213583 539.538567 158.248522 536.573506 
C 155.283461 533.608445 151.261411 531.942458 147.068182 531.942458 
C 142.874953 531.942458 138.852903 533.608445 135.887842 536.573506 
C 132.922781 539.538567 131.256794 543.560617 131.256794 547.753846 
C 131.256794 551.947075 132.922781 555.969125 135.887842 558.934186 
C 138.852903 561.899247 142.874953 563.565234 147.068182 563.565234 
z
" clip-path="url(#p84cfd32ef6)" style="fill: #7fc97f; stroke: #ffffff"/>
    <path d="M 178.772727 431.426455 
C 183.908363 431.426455 188.834348 429.386045 192.465791 425.754602 
C 196.097234 422.123159 198.137644 417.197174 198.137644 412.061538 
C 198.137644 406.925903 196.097234 401.999918 192.465791 398.368475 
C 188.834348 394.737032 183.908363 392.696622 178.772727 392.696622 
C 173.637091 392.696622 168.711106 394.737032 165.079663 398.368475 
C 161.44822 401.999918 159.407811 406.925903 159.407811 412.061538 
C 159.407811 417.197174 161.44822 422.123159 165.079663 425.754602 
C 168.711106 429.386045 173.637091 431.426455 178.772727 431.426455 
z
" clip-path="url(#p84cfd32ef6)" style="fill: #beaed4; stroke: #ffffff"/>
    <path d="M 185.818182 518.657224 
C 190.953818 518.657224 195.879803 516.616815 199.511246 512.985372 
C 203.142689 509.353929 205.183099 504.427944 205.183099 499.292308 
C 205.183099 494.156672 203.142689 489.230687 199.511246 485.599244 
C 195.879803 481.967801 190.953818 479.927391 185.818182 479.927391 
C 180.682546 479.927391 175.756561 481.967801 172.125118 485.599244 
C 168.493675 489.230687 166.453265 494.156672 166.453265 499.292308 
C 166.453265 504.427944 168.493675 509.353929 172.125118 512.985372 
C 175.756561 516.616815 180.682546 518.657224 185.818182 518.657224 
z
" clip-path="url(#p84cfd32ef6)" style="fill: #beaed4; stroke: #ffffff"/>
    <path d="M 115.363636 297.241878 
C 118.328697 297.241878 121.172716 296.063847 123.269331 293.967233 
C 125.365945 291.870618 126.543976 289.026599 126.543976 286.061538 
C 126.543976 283.096478 125.365945 280.252459 123.269331 278.155844 
C 121.172716 276.05923 118.328697 274.881199 115.363636 274.881199 
C 112.398576 274.881199 109.554557 276.05923 107.457942 278.155844 
C 105.361328 280.252459 104.183296 283.096478 104.183296 286.061538 
C 104.183296 289.026599 105.361328 291.870618 107.457942 293.967233 
C 109.554557 296.063847 112.398576 297.241878 115.363636 297.241878 
z
" clip-path="url(#p84cfd32ef6)" style="fill: #7fc97f; stroke: #ffffff"/>
    <path d="M 203.431818 522.534148 
C 208.567454 522.534148 213.493439 520.493738 217.124882 516.862295 
C 220.756325 513.230852 222.796735 508.304867 222.796735 503.169231 
C 222.796735 498.033595 220.756325 493.10761 217.124882 489.476167 
C 213.493439 485.844724 208.567454 483.804314 203.431818 483.804314 
C 198.296182 483.804314 193.370197 485.844724 189.738754 489.476167 
C 186.107311 493.10761 184.066901 498.033595 184.066901 503.169231 
C 184.066901 508.304867 186.107311 513.230852 189.738754 516.862295 
C 193.370197 520.493738 198.296182 522.534148 203.431818 522.534148 
z
" clip-path="url(#p84cfd32ef6)" style="fill: #beaed4; stroke: #ffffff"/>
    <path d="M 221.045455 339.349532 
C 226.18109 339.349532 231.107075 337.309122 234.738518 333.677679 
C 238.369961 330.046236 240.410371 325.120251 240.410371 319.984615 
C 240.410371 314.848979 238.369961 309.922994 234.738518 306.291551 
C 231.107075 302.660108 226.18109 300.619699 221.045455 300.619699 
C 215.909819 300.619699 210.983834 302.660108 207.352391 306.291551 
C 203.720948 309.922994 201.680538 314.848979 201.680538 319.984615 
C 201.680538 325.120251 203.720948 330.046236 207.352391 333.677679 
C 210.983834 337.309122 215.909819 339.349532 221.045455 339.349532 
z
" clip-path="url(#p84cfd32ef6)" style="fill: #beaed4; stroke: #ffffff"/>
    <path d="M 538.090909 441.099064 
C 548.362181 441.099064 558.214151 437.018245 565.477037 429.755359 
C 572.739923 422.492473 576.820743 412.640503 576.820743 402.369231 
C 576.820743 392.097959 572.739923 382.245989 565.477037 374.983103 
C 558.214151 367.720217 548.362181 363.639397 538.090909 363.639397 
C 527.819637 363.639397 517.967667 367.720217 510.704781 374.983103 
C 503.441895 382.245989 499.361076 392.097959 499.361076 402.369231 
C 499.361076 412.640503 503.441895 422.492473 510.704781 429.755359 
C 517.967667 437.018245 527.819637 441.099064 538.090909 441.099064 
z
" clip-path="url(#p84cfd32ef6)" style="fill: #666666; stroke: #ffffff"/>
    <path d="M 576.840909 654.329833 
C 587.112181 654.329833 596.964151 650.249014 604.227037 642.986128 
C 611.489923 635.723242 615.570743 625.871272 615.570743 615.6 
C 615.570743 605.328728 611.489923 595.476758 604.227037 588.213872 
C 596.964151 580.950986 587.112181 576.870167 576.840909 576.870167 
C 566.569637 576.870167 556.717667 580.950986 549.454781 588.213872 
C 542.191895 595.476758 538.111076 605.328728 538.111076 615.6 
C 538.111076 625.871272 542.191895 635.723242 549.454781 642.986128 
C 556.717667 650.249014 566.569637 654.329833 576.840909 654.329833 
z
" clip-path="url(#p84cfd32ef6)" style="fill: #666666; stroke: #ffffff"/>
    <path d="M 372.522727 404.915084 
C 380.909186 404.915084 388.953285 401.583109 394.883407 395.652987 
C 400.813529 389.722866 404.145504 381.678766 404.145504 373.292308 
C 404.145504 364.905849 400.813529 356.86175 394.883407 350.931628 
C 388.953285 345.001506 380.909186 341.669531 372.522727 341.669531 
C 364.136269 341.669531 356.092169 345.001506 350.162047 350.931628 
C 344.231926 356.86175 340.899951 364.905849 340.899951 373.292308 
C 340.899951 381.678766 344.231926 389.722866 350.162047 395.652987 
C 356.092169 401.583109 364.136269 404.915084 372.522727 404.915084 
z
" clip-path="url(#p84cfd32ef6)" style="fill: #f0027f; stroke: #ffffff"/>
    <path d="M 622.636364 567.099064 
C 632.907636 567.099064 642.759606 563.018245 650.022492 555.755359 
C 657.285378 548.492473 661.366197 538.640503 661.366197 528.369231 
C 661.366197 518.097959 657.285378 508.245989 650.022492 500.983103 
C 642.759606 493.720217 632.907636 489.639397 622.636364 489.639397 
C 612.365092 489.639397 602.513122 493.720217 595.250236 500.983103 
C 587.98735 508.245989 583.90653 518.097959 583.90653 528.369231 
C 583.90653 538.640503 587.98735 548.492473 595.250236 555.755359 
C 602.513122 563.018245 612.365092 567.099064 622.636364 567.099064 
z
" clip-path="url(#p84cfd32ef6)" style="fill: #666666; stroke: #ffffff"/>
    <path d="M 432.409091 497.601512 
C 439.671977 497.601512 446.638372 494.715937 451.774008 489.580301 
C 456.909644 484.444665 459.795219 477.478271 459.795219 470.215385 
C 459.795219 462.952499 456.909644 455.986104 451.774008 450.850468 
C 446.638372 445.714832 439.671977 442.829257 432.409091 442.829257 
C 425.146205 442.829257 418.17981 445.714832 413.044174 450.850468 
C 407.908538 455.986104 405.022963 462.952499 405.022963 470.215385 
C 405.022963 477.478271 407.908538 484.444665 413.044174 489.580301 
C 418.17981 494.715937 425.146205 497.601512 432.409091 497.601512 
z
" clip-path="url(#p84cfd32ef6)" style="fill: #ffff99; stroke: #ffffff"/>
    <path d="M 377.102273 264.986128 
C 384.365159 264.986128 391.331554 262.100553 396.467189 256.964917 
C 401.602825 251.829281 404.488401 244.862886 404.488401 237.6 
C 404.488401 230.337114 401.602825 223.370719 396.467189 218.235083 
C 391.331554 213.099447 384.365159 210.213872 377.102273 210.213872 
C 369.839387 210.213872 362.872992 213.099447 357.737356 218.235083 
C 352.60172 223.370719 349.716145 230.337114 349.716145 237.6 
C 349.716145 244.862886 352.60172 251.829281 357.737356 256.964917 
C 362.872992 262.100553 369.839387 264.986128 377.102273 264.986128 
z
" clip-path="url(#p84cfd32ef6)" style="fill: #ffff99; stroke: #ffffff"/>
   </g>
   <g id="matplotlib.axis_1">
    <g id="xtick_1">
     <g id="line2d_1">
      <defs>
       <path id="m5640020782" d="M 0 0 
L 0 3.5 
" style="stroke: #000000; stroke-width: 0.8"/>
      </defs>
      <g>
       <use xlink:href="#m5640020782" x="150.590909" y="640.8" style="stroke: #000000; stroke-width: 0.8"/>
      </g>
     </g>
     <g id="text_1">
      <!-- 2 -->
      <g transform="translate(147.409659 655.398438)scale(0.1 -0.1)">
       <defs>
        <path id="DejaVuSans-32" d="M 1228 531 
L 3431 531 
L 3431 0 
L 469 0 
L 469 531 
Q 828 903 1448 1529 
Q 2069 2156 2228 2338 
Q 2531 2678 2651 2914 
Q 2772 3150 2772 3378 
Q 2772 3750 2511 3984 
Q 2250 4219 1831 4219 
Q 1534 4219 1204 4116 
Q 875 4013 500 3803 
L 500 4441 
Q 881 4594 1212 4672 
Q 1544 4750 1819 4750 
Q 2544 4750 2975 4387 
Q 3406 4025 3406 3419 
Q 3406 3131 3298 2873 
Q 3191 2616 2906 2266 
Q 2828 2175 2409 1742 
Q 1991 1309 1228 531 
z
" transform="scale(0.015625)"/>
       </defs>
       <use xlink:href="#DejaVuSans-32"/>
      </g>
     </g>
    </g>
    <g id="xtick_2">
     <g id="line2d_2">
      <g>
       <use xlink:href="#m5640020782" x="221.045455" y="640.8" style="stroke: #000000; stroke-width: 0.8"/>
      </g>
     </g>
     <g id="text_2">
      <!-- 4 -->
      <g transform="translate(217.864205 655.398438)scale(0.1 -0.1)">
       <defs>
        <path id="DejaVuSans-34" d="M 2419 4116 
L 825 1625 
L 2419 1625 
L 2419 4116 
z
M 2253 4666 
L 3047 4666 
L 3047 1625 
L 3713 1625 
L 3713 1100 
L 3047 1100 
L 3047 0 
L 2419 0 
L 2419 1100 
L 313 1100 
L 313 1709 
L 2253 4666 
z
" transform="scale(0.015625)"/>
       </defs>
       <use xlink:href="#DejaVuSans-34"/>
      </g>
     </g>
    </g>
    <g id="xtick_3">
     <g id="line2d_3">
      <g>
       <use xlink:href="#m5640020782" x="291.5" y="640.8" style="stroke: #000000; stroke-width: 0.8"/>
      </g>
     </g>
     <g id="text_3">
      <!-- 6 -->
      <g transform="translate(288.31875 655.398438)scale(0.1 -0.1)">
       <defs>
        <path id="DejaVuSans-36" d="M 2113 2584 
Q 1688 2584 1439 2293 
Q 1191 2003 1191 1497 
Q 1191 994 1439 701 
Q 1688 409 2113 409 
Q 2538 409 2786 701 
Q 3034 994 3034 1497 
Q 3034 2003 2786 2293 
Q 2538 2584 2113 2584 
z
M 3366 4563 
L 3366 3988 
Q 3128 4100 2886 4159 
Q 2644 4219 2406 4219 
Q 1781 4219 1451 3797 
Q 1122 3375 1075 2522 
Q 1259 2794 1537 2939 
Q 1816 3084 2150 3084 
Q 2853 3084 3261 2657 
Q 3669 2231 3669 1497 
Q 3669 778 3244 343 
Q 2819 -91 2113 -91 
Q 1303 -91 875 529 
Q 447 1150 447 2328 
Q 447 3434 972 4092 
Q 1497 4750 2381 4750 
Q 2619 4750 2861 4703 
Q 3103 4656 3366 4563 
z
" transform="scale(0.015625)"/>
       </defs>
       <use xlink:href="#DejaVuSans-36"/>
      </g>
     </g>
    </g>
    <g id="xtick_4">
     <g id="line2d_4">
      <g>
       <use xlink:href="#m5640020782" x="361.954545" y="640.8" style="stroke: #000000; stroke-width: 0.8"/>
      </g>
     </g>
     <g id="text_4">
      <!-- 8 -->
      <g transform="translate(358.773295 655.398438)scale(0.1 -0.1)">
       <defs>
        <path id="DejaVuSans-38" d="M 2034 2216 
Q 1584 2216 1326 1975 
Q 1069 1734 1069 1313 
Q 1069 891 1326 650 
Q 1584 409 2034 409 
Q 2484 409 2743 651 
Q 3003 894 3003 1313 
Q 3003 1734 2745 1975 
Q 2488 2216 2034 2216 
z
M 1403 2484 
Q 997 2584 770 2862 
Q 544 3141 544 3541 
Q 544 4100 942 4425 
Q 1341 4750 2034 4750 
Q 2731 4750 3128 4425 
Q 3525 4100 3525 3541 
Q 3525 3141 3298 2862 
Q 3072 2584 2669 2484 
Q 3125 2378 3379 2068 
Q 3634 1759 3634 1313 
Q 3634 634 3220 271 
Q 2806 -91 2034 -91 
Q 1263 -91 848 271 
Q 434 634 434 1313 
Q 434 1759 690 2068 
Q 947 2378 1403 2484 
z
M 1172 3481 
Q 1172 3119 1398 2916 
Q 1625 2713 2034 2713 
Q 2441 2713 2670 2916 
Q 2900 3119 2900 3481 
Q 2900 3844 2670 4047 
Q 2441 4250 2034 4250 
Q 1625 4250 1398 4047 
Q 1172 3844 1172 3481 
z
" transform="scale(0.015625)"/>
       </defs>
       <use xlink:href="#DejaVuSans-38"/>
      </g>
     </g>
    </g>
    <g id="xtick_5">
     <g id="line2d_5">
      <g>
       <use xlink:href="#m5640020782" x="432.409091" y="640.8" style="stroke: #000000; stroke-width: 0.8"/>
      </g>
     </g>
     <g id="text_5">
      <!-- 10 -->
      <g transform="translate(426.046591 655.398438)scale(0.1 -0.1)">
       <defs>
        <path id="DejaVuSans-31" d="M 794 531 
L 1825 531 
L 1825 4091 
L 703 3866 
L 703 4441 
L 1819 4666 
L 2450 4666 
L 2450 531 
L 3481 531 
L 3481 0 
L 794 0 
L 794 531 
z
" transform="scale(0.015625)"/>
        <path id="DejaVuSans-30" d="M 2034 4250 
Q 1547 4250 1301 3770 
Q 1056 3291 1056 2328 
Q 1056 1369 1301 889 
Q 1547 409 2034 409 
Q 2525 409 2770 889 
Q 3016 1369 3016 2328 
Q 3016 3291 2770 3770 
Q 2525 4250 2034 4250 
z
M 2034 4750 
Q 2819 4750 3233 4129 
Q 3647 3509 3647 2328 
Q 3647 1150 3233 529 
Q 2819 -91 2034 -91 
Q 1250 -91 836 529 
Q 422 1150 422 2328 
Q 422 3509 836 4129 
Q 1250 4750 2034 4750 
z
" transform="scale(0.015625)"/>
       </defs>
       <use xlink:href="#DejaVuSans-31"/>
       <use xlink:href="#DejaVuSans-30" x="63.623047"/>
      </g>
     </g>
    </g>
    <g id="xtick_6">
     <g id="line2d_6">
      <g>
       <use xlink:href="#m5640020782" x="502.863636" y="640.8" style="stroke: #000000; stroke-width: 0.8"/>
      </g>
     </g>
     <g id="text_6">
      <!-- 12 -->
      <g transform="translate(496.501136 655.398438)scale(0.1 -0.1)">
       <use xlink:href="#DejaVuSans-31"/>
       <use xlink:href="#DejaVuSans-32" x="63.623047"/>
      </g>
     </g>
    </g>
    <g id="xtick_7">
     <g id="line2d_7">
      <g>
       <use xlink:href="#m5640020782" x="573.318182" y="640.8" style="stroke: #000000; stroke-width: 0.8"/>
      </g>
     </g>
     <g id="text_7">
      <!-- 14 -->
      <g transform="translate(566.955682 655.398438)scale(0.1 -0.1)">
       <use xlink:href="#DejaVuSans-31"/>
       <use xlink:href="#DejaVuSans-34" x="63.623047"/>
      </g>
     </g>
    </g>
    <g id="xtick_8">
     <g id="line2d_8">
      <g>
       <use xlink:href="#m5640020782" x="643.772727" y="640.8" style="stroke: #000000; stroke-width: 0.8"/>
      </g>
     </g>
     <g id="text_8">
      <!-- 16 -->
      <g transform="translate(637.410227 655.398438)scale(0.1 -0.1)">
       <use xlink:href="#DejaVuSans-31"/>
       <use xlink:href="#DejaVuSans-36" x="63.623047"/>
      </g>
     </g>
    </g>
    <g id="text_9">
     <!-- Mass(kg) -->
     <g transform="translate(335.162109 672.875781)scale(0.15 -0.15)">
      <defs>
       <path id="DejaVuSans-4d" d="M 628 4666 
L 1569 4666 
L 2759 1491 
L 3956 4666 
L 4897 4666 
L 4897 0 
L 4281 0 
L 4281 4097 
L 3078 897 
L 2444 897 
L 1241 4097 
L 1241 0 
L 628 0 
L 628 4666 
z
" transform="scale(0.015625)"/>
       <path id="DejaVuSans-61" d="M 2194 1759 
Q 1497 1759 1228 1600 
Q 959 1441 959 1056 
Q 959 750 1161 570 
Q 1363 391 1709 391 
Q 2188 391 2477 730 
Q 2766 1069 2766 1631 
L 2766 1759 
L 2194 1759 
z
M 3341 1997 
L 3341 0 
L 2766 0 
L 2766 531 
Q 2569 213 2275 61 
Q 1981 -91 1556 -91 
Q 1019 -91 701 211 
Q 384 513 384 1019 
Q 384 1609 779 1909 
Q 1175 2209 1959 2209 
L 2766 2209 
L 2766 2266 
Q 2766 2663 2505 2880 
Q 2244 3097 1772 3097 
Q 1472 3097 1187 3025 
Q 903 2953 641 2809 
L 641 3341 
Q 956 3463 1253 3523 
Q 1550 3584 1831 3584 
Q 2591 3584 2966 3190 
Q 3341 2797 3341 1997 
z
" transform="scale(0.015625)"/>
       <path id="DejaVuSans-73" d="M 2834 3397 
L 2834 2853 
Q 2591 2978 2328 3040 
Q 2066 3103 1784 3103 
Q 1356 3103 1142 2972 
Q 928 2841 928 2578 
Q 928 2378 1081 2264 
Q 1234 2150 1697 2047 
L 1894 2003 
Q 2506 1872 2764 1633 
Q 3022 1394 3022 966 
Q 3022 478 2636 193 
Q 2250 -91 1575 -91 
Q 1294 -91 989 -36 
Q 684 19 347 128 
L 347 722 
Q 666 556 975 473 
Q 1284 391 1588 391 
Q 1994 391 2212 530 
Q 2431 669 2431 922 
Q 2431 1156 2273 1281 
Q 2116 1406 1581 1522 
L 1381 1569 
Q 847 1681 609 1914 
Q 372 2147 372 2553 
Q 372 3047 722 3315 
Q 1072 3584 1716 3584 
Q 2034 3584 2315 3537 
Q 2597 3491 2834 3397 
z
" transform="scale(0.015625)"/>
       <path id="DejaVuSans-28" d="M 1984 4856 
Q 1566 4138 1362 3434 
Q 1159 2731 1159 2009 
Q 1159 1288 1364 580 
Q 1569 -128 1984 -844 
L 1484 -844 
Q 1016 -109 783 600 
Q 550 1309 550 2009 
Q 550 2706 781 3412 
Q 1013 4119 1484 4856 
L 1984 4856 
z
" transform="scale(0.015625)"/>
       <path id="DejaVuSans-6b" d="M 581 4863 
L 1159 4863 
L 1159 1991 
L 2875 3500 
L 3609 3500 
L 1753 1863 
L 3688 0 
L 2938 0 
L 1159 1709 
L 1159 0 
L 581 0 
L 581 4863 
z
" transform="scale(0.015625)"/>
       <path id="DejaVuSans-67" d="M 2906 1791 
Q 2906 2416 2648 2759 
Q 2391 3103 1925 3103 
Q 1463 3103 1205 2759 
Q 947 2416 947 1791 
Q 947 1169 1205 825 
Q 1463 481 1925 481 
Q 2391 481 2648 825 
Q 2906 1169 2906 1791 
z
M 3481 434 
Q 3481 -459 3084 -895 
Q 2688 -1331 1869 -1331 
Q 1566 -1331 1297 -1286 
Q 1028 -1241 775 -1147 
L 775 -588 
Q 1028 -725 1275 -790 
Q 1522 -856 1778 -856 
Q 2344 -856 2625 -561 
Q 2906 -266 2906 331 
L 2906 616 
Q 2728 306 2450 153 
Q 2172 0 1784 0 
Q 1141 0 747 490 
Q 353 981 353 1791 
Q 353 2603 747 3093 
Q 1141 3584 1784 3584 
Q 2172 3584 2450 3431 
Q 2728 3278 2906 2969 
L 2906 3500 
L 3481 3500 
L 3481 434 
z
" transform="scale(0.015625)"/>
       <path id="DejaVuSans-29" d="M 513 4856 
L 1013 4856 
Q 1481 4119 1714 3412 
Q 1947 2706 1947 2009 
Q 1947 1309 1714 600 
Q 1481 -109 1013 -844 
L 513 -844 
Q 928 -128 1133 580 
Q 1338 1288 1338 2009 
Q 1338 2731 1133 3434 
Q 928 4138 513 4856 
z
" transform="scale(0.015625)"/>
      </defs>
      <use xlink:href="#DejaVuSans-4d"/>
      <use xlink:href="#DejaVuSans-61" x="86.279297"/>
      <use xlink:href="#DejaVuSans-73" x="147.558594"/>
      <use xlink:href="#DejaVuSans-73" x="199.658203"/>
      <use xlink:href="#DejaVuSans-28" x="251.757812"/>
      <use xlink:href="#DejaVuSans-6b" x="290.771484"/>
      <use xlink:href="#DejaVuSans-67" x="348.681641"/>
      <use xlink:href="#DejaVuSans-29" x="412.158203"/>
     </g>
    </g>
   </g>
   <g id="matplotlib.axis_2">
    <g id="ytick_1">
     <g id="line2d_9">
      <defs>
       <path id="m7f6fc8c9f9" d="M 0 0 
L -3.5 0 
" style="stroke: #000000; stroke-width: 0.8"/>
      </defs>
      <g>
       <use xlink:href="#m7f6fc8c9f9" x="90" y="596.215385" style="stroke: #000000; stroke-width: 0.8"/>
      </g>
     </g>
     <g id="text_10">
      <!-- 400 -->
      <g transform="translate(63.9125 600.014603)scale(0.1 -0.1)">
       <use xlink:href="#DejaVuSans-34"/>
       <use xlink:href="#DejaVuSans-30" x="63.623047"/>
       <use xlink:href="#DejaVuSans-30" x="127.246094"/>
      </g>
     </g>
    </g>
    <g id="ytick_2">
     <g id="line2d_10">
      <g>
       <use xlink:href="#m7f6fc8c9f9" x="90" y="499.292308" style="stroke: #000000; stroke-width: 0.8"/>
      </g>
     </g>
     <g id="text_11">
      <!-- 500 -->
      <g transform="translate(63.9125 503.091526)scale(0.1 -0.1)">
       <defs>
        <path id="DejaVuSans-35" d="M 691 4666 
L 3169 4666 
L 3169 4134 
L 1269 4134 
L 1269 2991 
Q 1406 3038 1543 3061 
Q 1681 3084 1819 3084 
Q 2600 3084 3056 2656 
Q 3513 2228 3513 1497 
Q 3513 744 3044 326 
Q 2575 -91 1722 -91 
Q 1428 -91 1123 -41 
Q 819 9 494 109 
L 494 744 
Q 775 591 1075 516 
Q 1375 441 1709 441 
Q 2250 441 2565 725 
Q 2881 1009 2881 1497 
Q 2881 1984 2565 2268 
Q 2250 2553 1709 2553 
Q 1456 2553 1204 2497 
Q 953 2441 691 2322 
L 691 4666 
z
" transform="scale(0.015625)"/>
       </defs>
       <use xlink:href="#DejaVuSans-35"/>
       <use xlink:href="#DejaVuSans-30" x="63.623047"/>
       <use xlink:href="#DejaVuSans-30" x="127.246094"/>
      </g>
     </g>
    </g>
    <g id="ytick_3">
     <g id="line2d_11">
      <g>
       <use xlink:href="#m7f6fc8c9f9" x="90" y="402.369231" style="stroke: #000000; stroke-width: 0.8"/>
      </g>
     </g>
     <g id="text_12">
      <!-- 600 -->
      <g transform="translate(63.9125 406.16845)scale(0.1 -0.1)">
       <use xlink:href="#DejaVuSans-36"/>
       <use xlink:href="#DejaVuSans-30" x="63.623047"/>
       <use xlink:href="#DejaVuSans-30" x="127.246094"/>
      </g>
     </g>
    </g>
    <g id="ytick_4">
     <g id="line2d_12">
      <g>
       <use xlink:href="#m7f6fc8c9f9" x="90" y="305.446154" style="stroke: #000000; stroke-width: 0.8"/>
      </g>
     </g>
     <g id="text_13">
      <!-- 700 -->
      <g transform="translate(63.9125 309.245373)scale(0.1 -0.1)">
       <defs>
        <path id="DejaVuSans-37" d="M 525 4666 
L 3525 4666 
L 3525 4397 
L 1831 0 
L 1172 0 
L 2766 4134 
L 525 4134 
L 525 4666 
z
" transform="scale(0.015625)"/>
       </defs>
       <use xlink:href="#DejaVuSans-37"/>
       <use xlink:href="#DejaVuSans-30" x="63.623047"/>
       <use xlink:href="#DejaVuSans-30" x="127.246094"/>
      </g>
     </g>
    </g>
    <g id="ytick_5">
     <g id="line2d_13">
      <g>
       <use xlink:href="#m7f6fc8c9f9" x="90" y="208.523077" style="stroke: #000000; stroke-width: 0.8"/>
      </g>
     </g>
     <g id="text_14">
      <!-- 800 -->
      <g transform="translate(63.9125 212.322296)scale(0.1 -0.1)">
       <use xlink:href="#DejaVuSans-38"/>
       <use xlink:href="#DejaVuSans-30" x="63.623047"/>
       <use xlink:href="#DejaVuSans-30" x="127.246094"/>
      </g>
     </g>
    </g>
    <g id="ytick_6">
     <g id="line2d_14">
      <g>
       <use xlink:href="#m7f6fc8c9f9" x="90" y="111.6" style="stroke: #000000; stroke-width: 0.8"/>
      </g>
     </g>
     <g id="text_15">
      <!-- 900 -->
      <g transform="translate(63.9125 115.399219)scale(0.1 -0.1)">
       <defs>
        <path id="DejaVuSans-39" d="M 703 97 
L 703 672 
Q 941 559 1184 500 
Q 1428 441 1663 441 
Q 2288 441 2617 861 
Q 2947 1281 2994 2138 
Q 2813 1869 2534 1725 
Q 2256 1581 1919 1581 
Q 1219 1581 811 2004 
Q 403 2428 403 3163 
Q 403 3881 828 4315 
Q 1253 4750 1959 4750 
Q 2769 4750 3195 4129 
Q 3622 3509 3622 2328 
Q 3622 1225 3098 567 
Q 2575 -91 1691 -91 
Q 1453 -91 1209 -44 
Q 966 3 703 97 
z
M 1959 2075 
Q 2384 2075 2632 2365 
Q 2881 2656 2881 3163 
Q 2881 3666 2632 3958 
Q 2384 4250 1959 4250 
Q 1534 4250 1286 3958 
Q 1038 3666 1038 3163 
Q 1038 2656 1286 2365 
Q 1534 2075 1959 2075 
z
" transform="scale(0.015625)"/>
       </defs>
       <use xlink:href="#DejaVuSans-39"/>
       <use xlink:href="#DejaVuSans-30" x="63.623047"/>
       <use xlink:href="#DejaVuSans-30" x="127.246094"/>
      </g>
     </g>
    </g>
    <g id="text_16">
     <!-- Alt(km) -->
     <g transform="translate(56.792969 391.255078)rotate(-90)scale(0.15 -0.15)">
      <defs>
       <path id="DejaVuSans-41" d="M 2188 4044 
L 1331 1722 
L 3047 1722 
L 2188 4044 
z
M 1831 4666 
L 2547 4666 
L 4325 0 
L 3669 0 
L 3244 1197 
L 1141 1197 
L 716 0 
L 50 0 
L 1831 4666 
z
" transform="scale(0.015625)"/>
       <path id="DejaVuSans-6c" d="M 603 4863 
L 1178 4863 
L 1178 0 
L 603 0 
L 603 4863 
z
" transform="scale(0.015625)"/>
       <path id="DejaVuSans-74" d="M 1172 4494 
L 1172 3500 
L 2356 3500 
L 2356 3053 
L 1172 3053 
L 1172 1153 
Q 1172 725 1289 603 
Q 1406 481 1766 481 
L 2356 481 
L 2356 0 
L 1766 0 
Q 1100 0 847 248 
Q 594 497 594 1153 
L 594 3053 
L 172 3053 
L 172 3500 
L 594 3500 
L 594 4494 
L 1172 4494 
z
" transform="scale(0.015625)"/>
       <path id="DejaVuSans-6d" d="M 3328 2828 
Q 3544 3216 3844 3400 
Q 4144 3584 4550 3584 
Q 5097 3584 5394 3201 
Q 5691 2819 5691 2113 
L 5691 0 
L 5113 0 
L 5113 2094 
Q 5113 2597 4934 2840 
Q 4756 3084 4391 3084 
Q 3944 3084 3684 2787 
Q 3425 2491 3425 1978 
L 3425 0 
L 2847 0 
L 2847 2094 
Q 2847 2600 2669 2842 
Q 2491 3084 2119 3084 
Q 1678 3084 1418 2786 
Q 1159 2488 1159 1978 
L 1159 0 
L 581 0 
L 581 3500 
L 1159 3500 
L 1159 2956 
Q 1356 3278 1631 3431 
Q 1906 3584 2284 3584 
Q 2666 3584 2933 3390 
Q 3200 3197 3328 2828 
z
" transform="scale(0.015625)"/>
      </defs>
      <use xlink:href="#DejaVuSans-41"/>
      <use xlink:href="#DejaVuSans-6c" x="68.408203"/>
      <use xlink:href="#DejaVuSans-74" x="96.191406"/>
      <use xlink:href="#DejaVuSans-28" x="135.400391"/>
      <use xlink:href="#DejaVuSans-6b" x="174.414062"/>
      <use xlink:href="#DejaVuSans-6d" x="232.324219"/>
      <use xlink:href="#DejaVuSans-29" x="329.736328"/>
     </g>
    </g>
   </g>
   <g id="patch_3">
    <path d="M 90 640.8 
L 90 86.4 
" style="fill: none; stroke: #000000; stroke-width: 0.8; stroke-linejoin: miter; stroke-linecap: square"/>
   </g>
   <g id="patch_4">
    <path d="M 648 640.8 
L 648 86.4 
" style="fill: none; stroke: #000000; stroke-width: 0.8; stroke-linejoin: miter; stroke-linecap: square"/>
   </g>
   <g id="patch_5">
    <path d="M 90 640.8 
L 648 640.8 
" style="fill: none; stroke: #000000; stroke-width: 0.8; stroke-linejoin: miter; stroke-linecap: square"/>
   </g>
   <g id="patch_6">
    <path d="M 90 86.4 
L 648 86.4 
" style="fill: none; stroke: #000000; stroke-width: 0.8; stroke-linejoin: miter; stroke-linecap: square"/>
   </g>
   <g id="legend_1">
    <g id="patch_7">
     <path d="M 596.2 197.146875 
L 641 197.146875 
Q 643 197.146875 643 195.146875 
L 643 93.4 
Q 643 91.4 641 91.4 
L 596.2 91.4 
Q 594.2 91.4 594.2 93.4 
L 594.2 195.146875 
Q 594.2 197.146875 596.2 197.146875 
z
" style="fill: #ffffff; opacity: 0.8; stroke: #cccccc; stroke-linejoin: miter"/>
    </g>
    <g id="text_17">
     <!-- Unit -->
     <g transform="translate(608.422656 102.998437)scale(0.1 -0.1)">
      <defs>
       <path id="DejaVuSans-55" d="M 556 4666 
L 1191 4666 
L 1191 1831 
Q 1191 1081 1462 751 
Q 1734 422 2344 422 
Q 2950 422 3222 751 
Q 3494 1081 3494 1831 
L 3494 4666 
L 4128 4666 
L 4128 1753 
Q 4128 841 3676 375 
Q 3225 -91 2344 -91 
Q 1459 -91 1007 375 
Q 556 841 556 1753 
L 556 4666 
z
" transform="scale(0.015625)"/>
       <path id="DejaVuSans-6e" d="M 3513 2113 
L 3513 0 
L 2938 0 
L 2938 2094 
Q 2938 2591 2744 2837 
Q 2550 3084 2163 3084 
Q 1697 3084 1428 2787 
Q 1159 2491 1159 1978 
L 1159 0 
L 581 0 
L 581 3500 
L 1159 3500 
L 1159 2956 
Q 1366 3272 1645 3428 
Q 1925 3584 2291 3584 
Q 2894 3584 3203 3211 
Q 3513 2838 3513 2113 
z
" transform="scale(0.015625)"/>
       <path id="DejaVuSans-69" d="M 603 3500 
L 1178 3500 
L 1178 0 
L 603 0 
L 603 3500 
z
M 603 4863 
L 1178 4863 
L 1178 4134 
L 603 4134 
L 603 4863 
z
" transform="scale(0.015625)"/>
      </defs>
      <use xlink:href="#DejaVuSans-55"/>
      <use xlink:href="#DejaVuSans-6e" x="73.193359"/>
      <use xlink:href="#DejaVuSans-69" x="136.572266"/>
      <use xlink:href="#DejaVuSans-74" x="164.355469"/>
     </g>
    </g>
    <g id="line2d_15">
     <defs>
      <path id="m712ed03c4c" d="M 0 3 
C 0.795609 3 1.55874 2.683901 2.12132 2.12132 
C 2.683901 1.55874 3 0.795609 3 0 
C 3 -0.795609 2.683901 -1.55874 2.12132 -2.12132 
C 1.55874 -2.683901 0.795609 -3 0 -3 
C -0.795609 -3 -1.55874 -2.683901 -2.12132 -2.12132 
C -2.683901 -1.55874 -3 -0.795609 -3 0 
C -3 0.795609 -2.683901 1.55874 -2.12132 2.12132 
C -1.55874 2.683901 -0.795609 3 0 3 
z
" style="stroke: #7fc97f"/>
     </defs>
     <g>
      <use xlink:href="#m712ed03c4c" x="608.2" y="114.176562" style="fill: #7fc97f; stroke: #7fc97f"/>
     </g>
    </g>
    <g id="text_18">
     <!-- $\mathdefault{1}$ -->
     <g transform="translate(626.2 117.676562)scale(0.1 -0.1)">
      <use xlink:href="#DejaVuSans-31" transform="translate(0 0.09375)"/>
     </g>
    </g>
    <g id="line2d_16">
     <g>
      <use xlink:href="#m712ed03c4c" x="608.2" y="128.854687" style="fill: #7fc97f; stroke: #7fc97f"/>
     </g>
    </g>
    <g id="text_19">
     <!-- $\mathdefault{2}$ -->
     <g transform="translate(626.2 132.354687)scale(0.1 -0.1)">
      <use xlink:href="#DejaVuSans-32" transform="translate(0 0.78125)"/>
     </g>
    </g>
    <g id="line2d_17">
     <defs>
      <path id="m3b74c8178e" d="M 0 3 
C 0.795609 3 1.55874 2.683901 2.12132 2.12132 
C 2.683901 1.55874 3 0.795609 3 0 
C 3 -0.795609 2.683901 -1.55874 2.12132 -2.12132 
C 1.55874 -2.683901 0.795609 -3 0 -3 
C -0.795609 -3 -1.55874 -2.683901 -2.12132 -2.12132 
C -2.683901 -1.55874 -3 -0.795609 -3 0 
C -3 0.795609 -2.683901 1.55874 -2.12132 2.12132 
C -1.55874 2.683901 -0.795609 3 0 3 
z
" style="stroke: #beaed4"/>
     </defs>
     <g>
      <use xlink:href="#m3b74c8178e" x="608.2" y="143.532812" style="fill: #beaed4; stroke: #beaed4"/>
     </g>
    </g>
    <g id="text_20">
     <!-- $\mathdefault{3}$ -->
     <g transform="translate(626.2 147.032812)scale(0.1 -0.1)">
      <defs>
       <path id="DejaVuSans-33" d="M 2597 2516 
Q 3050 2419 3304 2112 
Q 3559 1806 3559 1356 
Q 3559 666 3084 287 
Q 2609 -91 1734 -91 
Q 1441 -91 1130 -33 
Q 819 25 488 141 
L 488 750 
Q 750 597 1062 519 
Q 1375 441 1716 441 
Q 2309 441 2620 675 
Q 2931 909 2931 1356 
Q 2931 1769 2642 2001 
Q 2353 2234 1838 2234 
L 1294 2234 
L 1294 2753 
L 1863 2753 
Q 2328 2753 2575 2939 
Q 2822 3125 2822 3475 
Q 2822 3834 2567 4026 
Q 2313 4219 1838 4219 
Q 1578 4219 1281 4162 
Q 984 4106 628 3988 
L 628 4550 
Q 988 4650 1302 4700 
Q 1616 4750 1894 4750 
Q 2613 4750 3031 4423 
Q 3450 4097 3450 3541 
Q 3450 3153 3228 2886 
Q 3006 2619 2597 2516 
z
" transform="scale(0.015625)"/>
      </defs>
      <use xlink:href="#DejaVuSans-33" transform="translate(0 0.78125)"/>
     </g>
    </g>
    <g id="line2d_18">
     <defs>
      <path id="m5f5a7e42d4" d="M 0 3 
C 0.795609 3 1.55874 2.683901 2.12132 2.12132 
C 2.683901 1.55874 3 0.795609 3 0 
C 3 -0.795609 2.683901 -1.55874 2.12132 -2.12132 
C 1.55874 -2.683901 0.795609 -3 0 -3 
C -0.795609 -3 -1.55874 -2.683901 -2.12132 -2.12132 
C -2.683901 -1.55874 -3 -0.795609 -3 0 
C -3 0.795609 -2.683901 1.55874 -2.12132 2.12132 
C -1.55874 2.683901 -0.795609 3 0 3 
z
" style="stroke: #ffff99"/>
     </defs>
     <g>
      <use xlink:href="#m5f5a7e42d4" x="608.2" y="158.210937" style="fill: #ffff99; stroke: #ffff99"/>
     </g>
    </g>
    <g id="text_21">
     <!-- $\mathdefault{6}$ -->
     <g transform="translate(626.2 161.710937)scale(0.1 -0.1)">
      <use xlink:href="#DejaVuSans-36" transform="translate(0 0.78125)"/>
     </g>
    </g>
    <g id="line2d_19">
     <defs>
      <path id="mee3352df0e" d="M 0 3 
C 0.795609 3 1.55874 2.683901 2.12132 2.12132 
C 2.683901 1.55874 3 0.795609 3 0 
C 3 -0.795609 2.683901 -1.55874 2.12132 -2.12132 
C 1.55874 -2.683901 0.795609 -3 0 -3 
C -0.795609 -3 -1.55874 -2.683901 -2.12132 -2.12132 
C -2.683901 -1.55874 -3 -0.795609 -3 0 
C -3 0.795609 -2.683901 1.55874 -2.12132 2.12132 
C -1.55874 2.683901 -0.795609 3 0 3 
z
" style="stroke: #f0027f"/>
     </defs>
     <g>
      <use xlink:href="#mee3352df0e" x="608.2" y="172.889062" style="fill: #f0027f; stroke: #f0027f"/>
     </g>
    </g>
    <g id="text_22">
     <!-- $\mathdefault{8}$ -->
     <g transform="translate(626.2 176.389062)scale(0.1 -0.1)">
      <use xlink:href="#DejaVuSans-38" transform="translate(0 0.78125)"/>
     </g>
    </g>
    <g id="line2d_20">
     <defs>
      <path id="m1488cd306f" d="M 0 3 
C 0.795609 3 1.55874 2.683901 2.12132 2.12132 
C 2.683901 1.55874 3 0.795609 3 0 
C 3 -0.795609 2.683901 -1.55874 2.12132 -2.12132 
C 1.55874 -2.683901 0.795609 -3 0 -3 
C -0.795609 -3 -1.55874 -2.683901 -2.12132 -2.12132 
C -2.683901 -1.55874 -3 -0.795609 -3 0 
C -3 0.795609 -2.683901 1.55874 -2.12132 2.12132 
C -1.55874 2.683901 -0.795609 3 0 3 
z
" style="stroke: #666666"/>
     </defs>
     <g>
      <use xlink:href="#m1488cd306f" x="608.2" y="187.567187" style="fill: #666666; stroke: #666666"/>
     </g>
    </g>
    <g id="text_23">
     <!-- $\mathdefault{12}$ -->
     <g transform="translate(626.2 191.067187)scale(0.1 -0.1)">
      <use xlink:href="#DejaVuSans-31" transform="translate(0 0.78125)"/>
      <use xlink:href="#DejaVuSans-32" transform="translate(63.623047 0.78125)"/>
     </g>
    </g>
   </g>
   <g id="legend_2">
    <g id="patch_8">
     <path d="M 596.2 197.146875 
L 641 197.146875 
Q 643 197.146875 643 195.146875 
L 643 93.4 
Q 643 91.4 641 91.4 
L 596.2 91.4 
Q 594.2 91.4 594.2 93.4 
L 594.2 195.146875 
Q 594.2 197.146875 596.2 197.146875 
z
" style="fill: #ffffff; opacity: 0.8; stroke: #cccccc; stroke-linejoin: miter"/>
    </g>
    <g id="text_24">
     <!-- Unit -->
     <g transform="translate(608.422656 102.998437)scale(0.1 -0.1)">
      <use xlink:href="#DejaVuSans-55"/>
      <use xlink:href="#DejaVuSans-6e" x="73.193359"/>
      <use xlink:href="#DejaVuSans-69" x="136.572266"/>
      <use xlink:href="#DejaVuSans-74" x="164.355469"/>
     </g>
    </g>
    <g id="line2d_21">
     <g>
      <use xlink:href="#m712ed03c4c" x="608.2" y="114.176562" style="fill: #7fc97f; stroke: #7fc97f"/>
     </g>
    </g>
    <g id="text_25">
     <!-- $\mathdefault{1}$ -->
     <g transform="translate(626.2 117.676562)scale(0.1 -0.1)">
      <use xlink:href="#DejaVuSans-31" transform="translate(0 0.09375)"/>
     </g>
    </g>
    <g id="line2d_22">
     <g>
      <use xlink:href="#m712ed03c4c" x="608.2" y="128.854687" style="fill: #7fc97f; stroke: #7fc97f"/>
     </g>
    </g>
    <g id="text_26">
     <!-- $\mathdefault{2}$ -->
     <g transform="translate(626.2 132.354687)scale(0.1 -0.1)">
      <use xlink:href="#DejaVuSans-32" transform="translate(0 0.78125)"/>
     </g>
    </g>
    <g id="line2d_23">
     <g>
      <use xlink:href="#m3b74c8178e" x="608.2" y="143.532812" style="fill: #beaed4; stroke: #beaed4"/>
     </g>
    </g>
    <g id="text_27">
     <!-- $\mathdefault{3}$ -->
     <g transform="translate(626.2 147.032812)scale(0.1 -0.1)">
      <use xlink:href="#DejaVuSans-33" transform="translate(0 0.78125)"/>
     </g>
    </g>
    <g id="line2d_24">
     <g>
      <use xlink:href="#m5f5a7e42d4" x="608.2" y="158.210937" style="fill: #ffff99; stroke: #ffff99"/>
     </g>
    </g>
    <g id="text_28">
     <!-- $\mathdefault{6}$ -->
     <g transform="translate(626.2 161.710937)scale(0.1 -0.1)">
      <use xlink:href="#DejaVuSans-36" transform="translate(0 0.78125)"/>
     </g>
    </g>
    <g id="line2d_25">
     <g>
      <use xlink:href="#mee3352df0e" x="608.2" y="172.889062" style="fill: #f0027f; stroke: #f0027f"/>
     </g>
    </g>
    <g id="text_29">
     <!-- $\mathdefault{8}$ -->
     <g transform="translate(626.2 176.389062)scale(0.1 -0.1)">
      <use xlink:href="#DejaVuSans-38" transform="translate(0 0.78125)"/>
     </g>
    </g>
    <g id="line2d_26">
     <g>
      <use xlink:href="#m1488cd306f" x="608.2" y="187.567187" style="fill: #666666; stroke: #666666"/>
     </g>
    </g>
    <g id="text_30">
     <!-- $\mathdefault{12}$ -->
     <g transform="translate(626.2 191.067187)scale(0.1 -0.1)">
      <use xlink:href="#DejaVuSans-31" transform="translate(0 0.78125)"/>
      <use xlink:href="#DejaVuSans-32" transform="translate(63.623047 0.78125)"/>
     </g>
    </g>
   </g>
   <g id="legend_3">
    <g id="patch_9">
     <path d="M 596.2 197.146875 
L 641 197.146875 
Q 643 197.146875 643 195.146875 
L 643 93.4 
Q 643 91.4 641 91.4 
L 596.2 91.4 
Q 594.2 91.4 594.2 93.4 
L 594.2 195.146875 
Q 594.2 197.146875 596.2 197.146875 
z
" style="fill: #ffffff; opacity: 0.8; stroke: #cccccc; stroke-linejoin: miter"/>
    </g>
    <g id="text_31">
     <!-- Unit -->
     <g transform="translate(608.422656 102.998437)scale(0.1 -0.1)">
      <use xlink:href="#DejaVuSans-55"/>
      <use xlink:href="#DejaVuSans-6e" x="73.193359"/>
      <use xlink:href="#DejaVuSans-69" x="136.572266"/>
      <use xlink:href="#DejaVuSans-74" x="164.355469"/>
     </g>
    </g>
    <g id="line2d_27">
     <g>
      <use xlink:href="#m712ed03c4c" x="608.2" y="114.176562" style="fill: #7fc97f; stroke: #7fc97f"/>
     </g>
    </g>
    <g id="text_32">
     <!-- $\mathdefault{1}$ -->
     <g transform="translate(626.2 117.676562)scale(0.1 -0.1)">
      <use xlink:href="#DejaVuSans-31" transform="translate(0 0.09375)"/>
     </g>
    </g>
    <g id="line2d_28">
     <g>
      <use xlink:href="#m712ed03c4c" x="608.2" y="128.854687" style="fill: #7fc97f; stroke: #7fc97f"/>
     </g>
    </g>
    <g id="text_33">
     <!-- $\mathdefault{2}$ -->
     <g transform="translate(626.2 132.354687)scale(0.1 -0.1)">
      <use xlink:href="#DejaVuSans-32" transform="translate(0 0.78125)"/>
     </g>
    </g>
    <g id="line2d_29">
     <g>
      <use xlink:href="#m3b74c8178e" x="608.2" y="143.532812" style="fill: #beaed4; stroke: #beaed4"/>
     </g>
    </g>
    <g id="text_34">
     <!-- $\mathdefault{3}$ -->
     <g transform="translate(626.2 147.032812)scale(0.1 -0.1)">
      <use xlink:href="#DejaVuSans-33" transform="translate(0 0.78125)"/>
     </g>
    </g>
    <g id="line2d_30">
     <g>
      <use xlink:href="#m5f5a7e42d4" x="608.2" y="158.210937" style="fill: #ffff99; stroke: #ffff99"/>
     </g>
    </g>
    <g id="text_35">
     <!-- $\mathdefault{6}$ -->
     <g transform="translate(626.2 161.710937)scale(0.1 -0.1)">
      <use xlink:href="#DejaVuSans-36" transform="translate(0 0.78125)"/>
     </g>
    </g>
    <g id="line2d_31">
     <g>
      <use xlink:href="#mee3352df0e" x="608.2" y="172.889062" style="fill: #f0027f; stroke: #f0027f"/>
     </g>
    </g>
    <g id="text_36">
     <!-- $\mathdefault{8}$ -->
     <g transform="translate(626.2 176.389062)scale(0.1 -0.1)">
      <use xlink:href="#DejaVuSans-38" transform="translate(0 0.78125)"/>
     </g>
    </g>
    <g id="line2d_32">
     <g>
      <use xlink:href="#m1488cd306f" x="608.2" y="187.567187" style="fill: #666666; stroke: #666666"/>
     </g>
    </g>
    <g id="text_37">
     <!-- $\mathdefault{12}$ -->
     <g transform="translate(626.2 191.067187)scale(0.1 -0.1)">
      <use xlink:href="#DejaVuSans-31" transform="translate(0 0.78125)"/>
      <use xlink:href="#DejaVuSans-32" transform="translate(63.623047 0.78125)"/>
     </g>
    </g>
   </g>
  </g>
 </g>
 <defs>
  <clipPath id="p84cfd32ef6">
   <rect x="90" y="86.4" width="558" height="554.4"/>
  </clipPath>
 </defs>
</svg>
