<?xml version="1.0" encoding="utf-8" standalone="no"?>
<!DOCTYPE svg PUBLIC "-//W3C//DTD SVG 1.1//EN"
  "http://www.w3.org/Graphics/SVG/1.1/DTD/svg11.dtd">
<svg xmlns:xlink="http://www.w3.org/1999/xlink" width="720pt" height="720pt" viewBox="0 0 720 720" xmlns="http://www.w3.org/2000/svg" version="1.1">
 <metadata>
  <rdf:RDF xmlns:dc="http://purl.org/dc/elements/1.1/" xmlns:cc="http://creativecommons.org/ns#" xmlns:rdf="http://www.w3.org/1999/02/22-rdf-syntax-ns#">
   <cc:Work>
    <dc:type rdf:resource="http://purl.org/dc/dcmitype/StillImage"/>
    <dc:date>2022-03-08T03:31:56.348218</dc:date>
    <dc:format>image/svg+xml</dc:format>
    <dc:creator>
     <cc:Agent>
      <dc:title>Matplotlib v3.5.0, https://matplotlib.org/</dc:title>
     </cc:Agent>
    </dc:creator>
   </cc:Work>
  </rdf:RDF>
 </metadata>
 <defs>
  <style type="text/css">*{stroke-linejoin: round; stroke-linecap: butt}</style>
 </defs>
 <g id="figure_1">
  <g id="patch_1">
   <path d="M 0 720 
L 720 720 
L 720 0 
L 0 0 
z
" style="fill: #ffffff"/>
  </g>
  <g id="axes_1">
   <g id="patch_2">
    <path d="M 90 640.8 
L 648 640.8 
L 648 86.4 
L 90 86.4 
z
" style="fill: #ffffff"/>
   </g>
   <g id="PathCollection_1">
    <path d="M 115.363636 210.351665 
C 120.989444 210.351665 126.38559 208.116508 130.363636 204.138462 
C 134.341683 200.160415 136.57684 194.764269 136.57684 189.138462 
C 136.57684 183.512654 134.341683 178.116508 130.363636 174.138462 
C 126.38559 170.160415 120.989444 167.925258 115.363636 167.925258 
C 109.737829 167.925258 104.341683 170.160415 100.363636 174.138462 
C 96.38559 178.116508 94.150433 183.512654 94.150433 189.138462 
C 94.150433 194.764269 96.38559 200.160415 100.363636 204.138462 
C 104.341683 208.116508 109.737829 210.351665 115.363636 210.351665 
z
" clip-path="url(#pb60391e961)" style="fill: #7fc97f; fill-opacity: 0.6; stroke: #ffffff; stroke-opacity: 0.6; stroke-width: 2"/>
    <path d="M 358.431818 163.561524 
C 372.212175 163.561524 385.42998 158.08653 395.174164 148.342346 
C 404.918348 138.598162 410.393342 125.380357 410.393342 111.6 
C 410.393342 97.819643 404.918348 84.601838 395.174164 74.857654 
C 385.42998 65.11347 372.212175 59.638476 358.431818 59.638476 
C 344.651461 59.638476 331.433656 65.11347 321.689472 74.857654 
C 311.945288 84.601838 306.470294 97.819643 306.470294 111.6 
C 306.470294 125.380357 311.945288 138.598162 321.689472 148.342346 
C 331.433656 158.08653 344.651461 163.561524 358.431818 163.561524 
z
" clip-path="url(#pb60391e961)" style="fill: #ffff99; fill-opacity: 0.6; stroke: #ffffff; stroke-opacity: 0.6; stroke-width: 2"/>
    <path d="M 273.886364 260.484601 
C 287.666721 260.484601 300.884526 255.009607 310.62871 245.265423 
C 320.372894 235.521239 325.847888 222.303434 325.847888 208.523077 
C 325.847888 194.74272 320.372894 181.524915 310.62871 171.780731 
C 300.884526 162.036547 287.666721 156.561553 273.886364 156.561553 
C 260.106006 156.561553 246.888202 162.036547 237.144017 171.780731 
C 227.399833 181.524915 221.924839 194.74272 221.924839 208.523077 
C 221.924839 222.303434 227.399833 235.521239 237.144017 245.265423 
C 246.888202 255.009607 260.106006 260.484601 273.886364 260.484601 
z
" clip-path="url(#pb60391e961)" style="fill: #ffff99; fill-opacity: 0.6; stroke: #ffffff; stroke-opacity: 0.6; stroke-width: 2"/>
    <path d="M 502.863636 643.330755 
C 516.643994 643.330755 529.861798 637.855761 539.605983 628.111577 
C 549.350167 618.367393 554.825161 605.149588 554.825161 591.369231 
C 554.825161 577.588873 549.350167 564.371069 539.605983 554.626885 
C 529.861798 544.882701 516.643994 539.407707 502.863636 539.407707 
C 489.083279 539.407707 475.865474 544.882701 466.12129 554.626885 
C 456.377106 564.371069 450.902112 577.588873 450.902112 591.369231 
C 450.902112 605.149588 456.377106 618.367393 466.12129 628.111577 
C 475.865474 637.855761 489.083279 643.330755 502.863636 643.330755 
z
" clip-path="url(#pb60391e961)" style="fill: #ffff99; fill-opacity: 0.6; stroke: #ffffff; stroke-opacity: 0.6; stroke-width: 2"/>
    <path d="M 147.068182 577.753846 
C 155.024275 577.753846 162.655578 574.592857 168.281385 568.96705 
C 173.907193 563.341242 177.068182 555.709939 177.068182 547.753846 
C 177.068182 539.797753 173.907193 532.16645 168.281385 526.540643 
C 162.655578 520.914835 155.024275 517.753846 147.068182 517.753846 
C 139.112089 517.753846 131.480786 520.914835 125.854978 526.540643 
C 120.229171 532.16645 117.068182 539.797753 117.068182 547.753846 
C 117.068182 555.709939 120.229171 563.341242 125.854978 568.96705 
C 131.480786 574.592857 139.112089 577.753846 147.068182 577.753846 
z
" clip-path="url(#pb60391e961)" style="fill: #7fc97f; fill-opacity: 0.6; stroke: #ffffff; stroke-opacity: 0.6; stroke-width: 2"/>
    <path d="M 178.772727 448.803885 
C 188.516911 448.803885 197.863311 444.932479 204.753489 438.042301 
C 211.643668 431.152122 215.515073 421.805723 215.515073 412.061538 
C 215.515073 402.317354 211.643668 392.970955 204.753489 386.080776 
C 197.863311 379.190598 188.516911 375.319192 178.772727 375.319192 
C 169.028543 375.319192 159.682144 379.190598 152.791965 386.080776 
C 145.901787 392.970955 142.030381 402.317354 142.030381 412.061538 
C 142.030381 421.805723 145.901787 431.152122 152.791965 438.042301 
C 159.682144 444.932479 169.028543 448.803885 178.772727 448.803885 
z
" clip-path="url(#pb60391e961)" style="fill: #beaed4; fill-opacity: 0.6; stroke: #ffffff; stroke-opacity: 0.6; stroke-width: 2"/>
    <path d="M 185.818182 536.034654 
C 195.562366 536.034654 204.908765 532.163248 211.798944 525.27307 
C 218.689123 518.382891 222.560528 509.036492 222.560528 499.292308 
C 222.560528 489.548124 218.689123 480.201724 211.798944 473.311546 
C 204.908765 466.421367 195.562366 462.549962 185.818182 462.549962 
C 176.073998 462.549962 166.727598 466.421367 159.83742 473.311546 
C 152.947241 480.201724 149.075836 489.548124 149.075836 499.292308 
C 149.075836 509.036492 152.947241 518.382891 159.83742 525.27307 
C 166.727598 532.163248 176.073998 536.034654 185.818182 536.034654 
z
" clip-path="url(#pb60391e961)" style="fill: #beaed4; fill-opacity: 0.6; stroke: #ffffff; stroke-opacity: 0.6; stroke-width: 2"/>
    <path d="M 115.363636 307.274742 
C 120.989444 307.274742 126.38559 305.039585 130.363636 301.061538 
C 134.341683 297.083492 136.57684 291.687346 136.57684 286.061538 
C 136.57684 280.435731 134.341683 275.039585 130.363636 271.061538 
C 126.38559 267.083492 120.989444 264.848335 115.363636 264.848335 
C 109.737829 264.848335 104.341683 267.083492 100.363636 271.061538 
C 96.38559 275.039585 94.150433 280.435731 94.150433 286.061538 
C 94.150433 291.687346 96.38559 297.083492 100.363636 301.061538 
C 104.341683 305.039585 109.737829 307.274742 115.363636 307.274742 
z
" clip-path="url(#pb60391e961)" style="fill: #7fc97f; fill-opacity: 0.6; stroke: #ffffff; stroke-opacity: 0.6; stroke-width: 2"/>
    <path d="M 203.431818 539.911577 
C 213.176002 539.911577 222.522402 536.040172 229.41258 529.149993 
C 236.302759 522.259814 240.174164 512.913415 240.174164 503.169231 
C 240.174164 493.425047 236.302759 484.078647 229.41258 477.188469 
C 222.522402 470.29829 213.176002 466.426885 203.431818 466.426885 
C 193.687634 466.426885 184.341235 470.29829 177.451056 477.188469 
C 170.560877 484.078647 166.689472 493.425047 166.689472 503.169231 
C 166.689472 512.913415 170.560877 522.259814 177.451056 529.149993 
C 184.341235 536.040172 193.687634 539.911577 203.431818 539.911577 
z
" clip-path="url(#pb60391e961)" style="fill: #beaed4; fill-opacity: 0.6; stroke: #ffffff; stroke-opacity: 0.6; stroke-width: 2"/>
    <path d="M 221.045455 356.726962 
C 230.789639 356.726962 240.136038 352.855556 247.026217 345.965377 
C 253.916395 339.075199 257.787801 329.728799 257.787801 319.984615 
C 257.787801 310.240431 253.916395 300.894032 247.026217 294.003853 
C 240.136038 287.113675 230.789639 283.242269 221.045455 283.242269 
C 211.30127 283.242269 201.954871 287.113675 195.064692 294.003853 
C 188.174514 300.894032 184.303108 310.240431 184.303108 319.984615 
C 184.303108 329.728799 188.174514 339.075199 195.064692 345.965377 
C 201.954871 352.855556 211.30127 356.726962 221.045455 356.726962 
z
" clip-path="url(#pb60391e961)" style="fill: #beaed4; fill-opacity: 0.6; stroke: #ffffff; stroke-opacity: 0.6; stroke-width: 2"/>
    <path d="M 538.090909 475.853923 
C 557.579277 475.853923 576.272076 468.111112 590.052433 454.330755 
C 603.832791 440.550398 611.575601 421.857599 611.575601 402.369231 
C 611.575601 382.880863 603.832791 364.188064 590.052433 350.407707 
C 576.272076 336.627349 557.579277 328.884538 538.090909 328.884538 
C 518.602541 328.884538 499.909742 336.627349 486.129385 350.407707 
C 472.349028 364.188064 464.606217 382.880863 464.606217 402.369231 
C 464.606217 421.857599 472.349028 440.550398 486.129385 454.330755 
C 499.909742 468.111112 518.602541 475.853923 538.090909 475.853923 
z
" clip-path="url(#pb60391e961)" style="fill: #666666; fill-opacity: 0.6; stroke: #ffffff; stroke-opacity: 0.6; stroke-width: 2"/>
    <path d="M 576.840909 689.084692 
C 596.329277 689.084692 615.022076 681.341882 628.802433 667.561524 
C 642.582791 653.781167 650.325601 635.088368 650.325601 615.6 
C 650.325601 596.111632 642.582791 577.418833 628.802433 563.638476 
C 615.022076 549.858118 596.329277 542.115308 576.840909 542.115308 
C 557.352541 542.115308 538.659742 549.858118 524.879385 563.638476 
C 511.099028 577.418833 503.356217 596.111632 503.356217 615.6 
C 503.356217 635.088368 511.099028 653.781167 524.879385 667.561524 
C 538.659742 681.341882 557.352541 689.084692 576.840909 689.084692 
z
" clip-path="url(#pb60391e961)" style="fill: #666666; fill-opacity: 0.6; stroke: #ffffff; stroke-opacity: 0.6; stroke-width: 2"/>
    <path d="M 372.522727 433.292308 
C 388.434913 433.292308 403.69752 426.970329 414.949134 415.718715 
C 426.200749 404.4671 432.522727 389.204494 432.522727 373.292308 
C 432.522727 357.380122 426.200749 342.117515 414.949134 330.865901 
C 403.69752 319.614286 388.434913 313.292308 372.522727 313.292308 
C 356.610541 313.292308 341.347935 319.614286 330.09632 330.865901 
C 318.844706 342.117515 312.522727 357.380122 312.522727 373.292308 
C 312.522727 389.204494 318.844706 404.4671 330.09632 415.718715 
C 341.347935 426.970329 356.610541 433.292308 372.522727 433.292308 
z
" clip-path="url(#pb60391e961)" style="fill: #f0027f; fill-opacity: 0.6; stroke: #ffffff; stroke-opacity: 0.6; stroke-width: 2"/>
    <path d="M 622.636364 601.853923 
C 642.124732 601.853923 660.817531 594.111112 674.597888 580.330755 
C 688.378245 566.550398 696.121056 547.857599 696.121056 528.369231 
C 696.121056 508.880863 688.378245 490.188064 674.597888 476.407707 
C 660.817531 462.627349 642.124732 454.884538 622.636364 454.884538 
C 603.147995 454.884538 584.455197 462.627349 570.674839 476.407707 
C 556.894482 490.188064 549.151671 508.880863 549.151671 528.369231 
C 549.151671 547.857599 556.894482 566.550398 570.674839 580.330755 
C 584.455197 594.111112 603.147995 601.853923 622.636364 601.853923 
z
" clip-path="url(#pb60391e961)" style="fill: #666666; fill-opacity: 0.6; stroke: #ffffff; stroke-opacity: 0.6; stroke-width: 2"/>
    <path d="M 432.409091 522.176909 
C 446.189448 522.176909 459.407253 516.701915 469.151437 506.957731 
C 478.895621 497.213547 484.370615 483.995742 484.370615 470.215385 
C 484.370615 456.435027 478.895621 443.217223 469.151437 433.473038 
C 459.407253 423.728854 446.189448 418.25386 432.409091 418.25386 
C 418.628734 418.25386 405.410929 423.728854 395.666745 433.473038 
C 385.922561 443.217223 380.447567 456.435027 380.447567 470.215385 
C 380.447567 483.995742 385.922561 497.213547 395.666745 506.957731 
C 405.410929 516.701915 418.628734 522.176909 432.409091 522.176909 
z
" clip-path="url(#pb60391e961)" style="fill: #ffff99; fill-opacity: 0.6; stroke: #ffffff; stroke-opacity: 0.6; stroke-width: 2"/>
    <path d="M 377.102273 289.561524 
C 390.88263 289.561524 404.100435 284.08653 413.844619 274.342346 
C 423.588803 264.598162 429.063797 251.380357 429.063797 237.6 
C 429.063797 223.819643 423.588803 210.601838 413.844619 200.857654 
C 404.100435 191.11347 390.88263 185.638476 377.102273 185.638476 
C 363.321915 185.638476 350.104111 191.11347 340.359927 200.857654 
C 330.615742 210.601838 325.140749 223.819643 325.140749 237.6 
C 325.140749 251.380357 330.615742 264.598162 340.359927 274.342346 
C 350.104111 284.08653 363.321915 289.561524 377.102273 289.561524 
z
" clip-path="url(#pb60391e961)" style="fill: #ffff99; fill-opacity: 0.6; stroke: #ffffff; stroke-opacity: 0.6; stroke-width: 2"/>
   </g>
   <g id="matplotlib.axis_1">
    <g id="xtick_1">
     <g id="line2d_1">
      <defs>
       <path id="medeee2bdb0" d="M 0 0 
L 0 3.5 
" style="stroke: #000000; stroke-width: 0.8"/>
      </defs>
      <g>
       <use xlink:href="#medeee2bdb0" x="150.590909" y="640.8" style="stroke: #000000; stroke-width: 0.8"/>
      </g>
     </g>
     <g id="text_1">
      <!-- 2 -->
      <g transform="translate(147.409659 655.398438)scale(0.1 -0.1)">
       <defs>
        <path id="DejaVuSans-32" d="M 1228 531 
L 3431 531 
L 3431 0 
L 469 0 
L 469 531 
Q 828 903 1448 1529 
Q 2069 2156 2228 2338 
Q 2531 2678 2651 2914 
Q 2772 3150 2772 3378 
Q 2772 3750 2511 3984 
Q 2250 4219 1831 4219 
Q 1534 4219 1204 4116 
Q 875 4013 500 3803 
L 500 4441 
Q 881 4594 1212 4672 
Q 1544 4750 1819 4750 
Q 2544 4750 2975 4387 
Q 3406 4025 3406 3419 
Q 3406 3131 3298 2873 
Q 3191 2616 2906 2266 
Q 2828 2175 2409 1742 
Q 1991 1309 1228 531 
z
" transform="scale(0.015625)"/>
       </defs>
       <use xlink:href="#DejaVuSans-32"/>
      </g>
     </g>
    </g>
    <g id="xtick_2">
     <g id="line2d_2">
      <g>
       <use xlink:href="#medeee2bdb0" x="221.045455" y="640.8" style="stroke: #000000; stroke-width: 0.8"/>
      </g>
     </g>
     <g id="text_2">
      <!-- 4 -->
      <g transform="translate(217.864205 655.398438)scale(0.1 -0.1)">
       <defs>
        <path id="DejaVuSans-34" d="M 2419 4116 
L 825 1625 
L 2419 1625 
L 2419 4116 
z
M 2253 4666 
L 3047 4666 
L 3047 1625 
L 3713 1625 
L 3713 1100 
L 3047 1100 
L 3047 0 
L 2419 0 
L 2419 1100 
L 313 1100 
L 313 1709 
L 2253 4666 
z
" transform="scale(0.015625)"/>
       </defs>
       <use xlink:href="#DejaVuSans-34"/>
      </g>
     </g>
    </g>
    <g id="xtick_3">
     <g id="line2d_3">
      <g>
       <use xlink:href="#medeee2bdb0" x="291.5" y="640.8" style="stroke: #000000; stroke-width: 0.8"/>
      </g>
     </g>
     <g id="text_3">
      <!-- 6 -->
      <g transform="translate(288.31875 655.398438)scale(0.1 -0.1)">
       <defs>
        <path id="DejaVuSans-36" d="M 2113 2584 
Q 1688 2584 1439 2293 
Q 1191 2003 1191 1497 
Q 1191 994 1439 701 
Q 1688 409 2113 409 
Q 2538 409 2786 701 
Q 3034 994 3034 1497 
Q 3034 2003 2786 2293 
Q 2538 2584 2113 2584 
z
M 3366 4563 
L 3366 3988 
Q 3128 4100 2886 4159 
Q 2644 4219 2406 4219 
Q 1781 4219 1451 3797 
Q 1122 3375 1075 2522 
Q 1259 2794 1537 2939 
Q 1816 3084 2150 3084 
Q 2853 3084 3261 2657 
Q 3669 2231 3669 1497 
Q 3669 778 3244 343 
Q 2819 -91 2113 -91 
Q 1303 -91 875 529 
Q 447 1150 447 2328 
Q 447 3434 972 4092 
Q 1497 4750 2381 4750 
Q 2619 4750 2861 4703 
Q 3103 4656 3366 4563 
z
" transform="scale(0.015625)"/>
       </defs>
       <use xlink:href="#DejaVuSans-36"/>
      </g>
     </g>
    </g>
    <g id="xtick_4">
     <g id="line2d_4">
      <g>
       <use xlink:href="#medeee2bdb0" x="361.954545" y="640.8" style="stroke: #000000; stroke-width: 0.8"/>
      </g>
     </g>
     <g id="text_4">
      <!-- 8 -->
      <g transform="translate(358.773295 655.398438)scale(0.1 -0.1)">
       <defs>
        <path id="DejaVuSans-38" d="M 2034 2216 
Q 1584 2216 1326 1975 
Q 1069 1734 1069 1313 
Q 1069 891 1326 650 
Q 1584 409 2034 409 
Q 2484 409 2743 651 
Q 3003 894 3003 1313 
Q 3003 1734 2745 1975 
Q 2488 2216 2034 2216 
z
M 1403 2484 
Q 997 2584 770 2862 
Q 544 3141 544 3541 
Q 544 4100 942 4425 
Q 1341 4750 2034 4750 
Q 2731 4750 3128 4425 
Q 3525 4100 3525 3541 
Q 3525 3141 3298 2862 
Q 3072 2584 2669 2484 
Q 3125 2378 3379 2068 
Q 3634 1759 3634 1313 
Q 3634 634 3220 271 
Q 2806 -91 2034 -91 
Q 1263 -91 848 271 
Q 434 634 434 1313 
Q 434 1759 690 2068 
Q 947 2378 1403 2484 
z
M 1172 3481 
Q 1172 3119 1398 2916 
Q 1625 2713 2034 2713 
Q 2441 2713 2670 2916 
Q 2900 3119 2900 3481 
Q 2900 3844 2670 4047 
Q 2441 4250 2034 4250 
Q 1625 4250 1398 4047 
Q 1172 3844 1172 3481 
z
" transform="scale(0.015625)"/>
       </defs>
       <use xlink:href="#DejaVuSans-38"/>
      </g>
     </g>
    </g>
    <g id="xtick_5">
     <g id="line2d_5">
      <g>
       <use xlink:href="#medeee2bdb0" x="432.409091" y="640.8" style="stroke: #000000; stroke-width: 0.8"/>
      </g>
     </g>
     <g id="text_5">
      <!-- 10 -->
      <g transform="translate(426.046591 655.398438)scale(0.1 -0.1)">
       <defs>
        <path id="DejaVuSans-31" d="M 794 531 
L 1825 531 
L 1825 4091 
L 703 3866 
L 703 4441 
L 1819 4666 
L 2450 4666 
L 2450 531 
L 3481 531 
L 3481 0 
L 794 0 
L 794 531 
z
" transform="scale(0.015625)"/>
        <path id="DejaVuSans-30" d="M 2034 4250 
Q 1547 4250 1301 3770 
Q 1056 3291 1056 2328 
Q 1056 1369 1301 889 
Q 1547 409 2034 409 
Q 2525 409 2770 889 
Q 3016 1369 3016 2328 
Q 3016 3291 2770 3770 
Q 2525 4250 2034 4250 
z
M 2034 4750 
Q 2819 4750 3233 4129 
Q 3647 3509 3647 2328 
Q 3647 1150 3233 529 
Q 2819 -91 2034 -91 
Q 1250 -91 836 529 
Q 422 1150 422 2328 
Q 422 3509 836 4129 
Q 1250 4750 2034 4750 
z
" transform="scale(0.015625)"/>
       </defs>
       <use xlink:href="#DejaVuSans-31"/>
       <use xlink:href="#DejaVuSans-30" x="63.623047"/>
      </g>
     </g>
    </g>
    <g id="xtick_6">
     <g id="line2d_6">
      <g>
       <use xlink:href="#medeee2bdb0" x="502.863636" y="640.8" style="stroke: #000000; stroke-width: 0.8"/>
      </g>
     </g>
     <g id="text_6">
      <!-- 12 -->
      <g transform="translate(496.501136 655.398438)scale(0.1 -0.1)">
       <use xlink:href="#DejaVuSans-31"/>
       <use xlink:href="#DejaVuSans-32" x="63.623047"/>
      </g>
     </g>
    </g>
    <g id="xtick_7">
     <g id="line2d_7">
      <g>
       <use xlink:href="#medeee2bdb0" x="573.318182" y="640.8" style="stroke: #000000; stroke-width: 0.8"/>
      </g>
     </g>
     <g id="text_7">
      <!-- 14 -->
      <g transform="translate(566.955682 655.398438)scale(0.1 -0.1)">
       <use xlink:href="#DejaVuSans-31"/>
       <use xlink:href="#DejaVuSans-34" x="63.623047"/>
      </g>
     </g>
    </g>
    <g id="xtick_8">
     <g id="line2d_8">
      <g>
       <use xlink:href="#medeee2bdb0" x="643.772727" y="640.8" style="stroke: #000000; stroke-width: 0.8"/>
      </g>
     </g>
     <g id="text_8">
      <!-- 16 -->
      <g transform="translate(637.410227 655.398438)scale(0.1 -0.1)">
       <use xlink:href="#DejaVuSans-31"/>
       <use xlink:href="#DejaVuSans-36" x="63.623047"/>
      </g>
     </g>
    </g>
    <g id="text_9">
     <!-- Mass(kg) -->
     <g transform="translate(335.162109 672.875781)scale(0.15 -0.15)">
      <defs>
       <path id="DejaVuSans-4d" d="M 628 4666 
L 1569 4666 
L 2759 1491 
L 3956 4666 
L 4897 4666 
L 4897 0 
L 4281 0 
L 4281 4097 
L 3078 897 
L 2444 897 
L 1241 4097 
L 1241 0 
L 628 0 
L 628 4666 
z
" transform="scale(0.015625)"/>
       <path id="DejaVuSans-61" d="M 2194 1759 
Q 1497 1759 1228 1600 
Q 959 1441 959 1056 
Q 959 750 1161 570 
Q 1363 391 1709 391 
Q 2188 391 2477 730 
Q 2766 1069 2766 1631 
L 2766 1759 
L 2194 1759 
z
M 3341 1997 
L 3341 0 
L 2766 0 
L 2766 531 
Q 2569 213 2275 61 
Q 1981 -91 1556 -91 
Q 1019 -91 701 211 
Q 384 513 384 1019 
Q 384 1609 779 1909 
Q 1175 2209 1959 2209 
L 2766 2209 
L 2766 2266 
Q 2766 2663 2505 2880 
Q 2244 3097 1772 3097 
Q 1472 3097 1187 3025 
Q 903 2953 641 2809 
L 641 3341 
Q 956 3463 1253 3523 
Q 1550 3584 1831 3584 
Q 2591 3584 2966 3190 
Q 3341 2797 3341 1997 
z
" transform="scale(0.015625)"/>
       <path id="DejaVuSans-73" d="M 2834 3397 
L 2834 2853 
Q 2591 2978 2328 3040 
Q 2066 3103 1784 3103 
Q 1356 3103 1142 2972 
Q 928 2841 928 2578 
Q 928 2378 1081 2264 
Q 1234 2150 1697 2047 
L 1894 2003 
Q 2506 1872 2764 1633 
Q 3022 1394 3022 966 
Q 3022 478 2636 193 
Q 2250 -91 1575 -91 
Q 1294 -91 989 -36 
Q 684 19 347 128 
L 347 722 
Q 666 556 975 473 
Q 1284 391 1588 391 
Q 1994 391 2212 530 
Q 2431 669 2431 922 
Q 2431 1156 2273 1281 
Q 2116 1406 1581 1522 
L 1381 1569 
Q 847 1681 609 1914 
Q 372 2147 372 2553 
Q 372 3047 722 3315 
Q 1072 3584 1716 3584 
Q 2034 3584 2315 3537 
Q 2597 3491 2834 3397 
z
" transform="scale(0.015625)"/>
       <path id="DejaVuSans-28" d="M 1984 4856 
Q 1566 4138 1362 3434 
Q 1159 2731 1159 2009 
Q 1159 1288 1364 580 
Q 1569 -128 1984 -844 
L 1484 -844 
Q 1016 -109 783 600 
Q 550 1309 550 2009 
Q 550 2706 781 3412 
Q 1013 4119 1484 4856 
L 1984 4856 
z
" transform="scale(0.015625)"/>
       <path id="DejaVuSans-6b" d="M 581 4863 
L 1159 4863 
L 1159 1991 
L 2875 3500 
L 3609 3500 
L 1753 1863 
L 3688 0 
L 2938 0 
L 1159 1709 
L 1159 0 
L 581 0 
L 581 4863 
z
" transform="scale(0.015625)"/>
       <path id="DejaVuSans-67" d="M 2906 1791 
Q 2906 2416 2648 2759 
Q 2391 3103 1925 3103 
Q 1463 3103 1205 2759 
Q 947 2416 947 1791 
Q 947 1169 1205 825 
Q 1463 481 1925 481 
Q 2391 481 2648 825 
Q 2906 1169 2906 1791 
z
M 3481 434 
Q 3481 -459 3084 -895 
Q 2688 -1331 1869 -1331 
Q 1566 -1331 1297 -1286 
Q 1028 -1241 775 -1147 
L 775 -588 
Q 1028 -725 1275 -790 
Q 1522 -856 1778 -856 
Q 2344 -856 2625 -561 
Q 2906 -266 2906 331 
L 2906 616 
Q 2728 306 2450 153 
Q 2172 0 1784 0 
Q 1141 0 747 490 
Q 353 981 353 1791 
Q 353 2603 747 3093 
Q 1141 3584 1784 3584 
Q 2172 3584 2450 3431 
Q 2728 3278 2906 2969 
L 2906 3500 
L 3481 3500 
L 3481 434 
z
" transform="scale(0.015625)"/>
       <path id="DejaVuSans-29" d="M 513 4856 
L 1013 4856 
Q 1481 4119 1714 3412 
Q 1947 2706 1947 2009 
Q 1947 1309 1714 600 
Q 1481 -109 1013 -844 
L 513 -844 
Q 928 -128 1133 580 
Q 1338 1288 1338 2009 
Q 1338 2731 1133 3434 
Q 928 4138 513 4856 
z
" transform="scale(0.015625)"/>
      </defs>
      <use xlink:href="#DejaVuSans-4d"/>
      <use xlink:href="#DejaVuSans-61" x="86.279297"/>
      <use xlink:href="#DejaVuSans-73" x="147.558594"/>
      <use xlink:href="#DejaVuSans-73" x="199.658203"/>
      <use xlink:href="#DejaVuSans-28" x="251.757812"/>
      <use xlink:href="#DejaVuSans-6b" x="290.771484"/>
      <use xlink:href="#DejaVuSans-67" x="348.681641"/>
      <use xlink:href="#DejaVuSans-29" x="412.158203"/>
     </g>
    </g>
   </g>
   <g id="matplotlib.axis_2">
    <g id="ytick_1">
     <g id="line2d_9">
      <defs>
       <path id="m482636d381" d="M 0 0 
L -3.5 0 
" style="stroke: #000000; stroke-width: 0.8"/>
      </defs>
      <g>
       <use xlink:href="#m482636d381" x="90" y="596.215385" style="stroke: #000000; stroke-width: 0.8"/>
      </g>
     </g>
     <g id="text_10">
      <!-- 400 -->
      <g transform="translate(63.9125 600.014603)scale(0.1 -0.1)">
       <use xlink:href="#DejaVuSans-34"/>
       <use xlink:href="#DejaVuSans-30" x="63.623047"/>
       <use xlink:href="#DejaVuSans-30" x="127.246094"/>
      </g>
     </g>
    </g>
    <g id="ytick_2">
     <g id="line2d_10">
      <g>
       <use xlink:href="#m482636d381" x="90" y="499.292308" style="stroke: #000000; stroke-width: 0.8"/>
      </g>
     </g>
     <g id="text_11">
      <!-- 500 -->
      <g transform="translate(63.9125 503.091526)scale(0.1 -0.1)">
       <defs>
        <path id="DejaVuSans-35" d="M 691 4666 
L 3169 4666 
L 3169 4134 
L 1269 4134 
L 1269 2991 
Q 1406 3038 1543 3061 
Q 1681 3084 1819 3084 
Q 2600 3084 3056 2656 
Q 3513 2228 3513 1497 
Q 3513 744 3044 326 
Q 2575 -91 1722 -91 
Q 1428 -91 1123 -41 
Q 819 9 494 109 
L 494 744 
Q 775 591 1075 516 
Q 1375 441 1709 441 
Q 2250 441 2565 725 
Q 2881 1009 2881 1497 
Q 2881 1984 2565 2268 
Q 2250 2553 1709 2553 
Q 1456 2553 1204 2497 
Q 953 2441 691 2322 
L 691 4666 
z
" transform="scale(0.015625)"/>
       </defs>
       <use xlink:href="#DejaVuSans-35"/>
       <use xlink:href="#DejaVuSans-30" x="63.623047"/>
       <use xlink:href="#DejaVuSans-30" x="127.246094"/>
      </g>
     </g>
    </g>
    <g id="ytick_3">
     <g id="line2d_11">
      <g>
       <use xlink:href="#m482636d381" x="90" y="402.369231" style="stroke: #000000; stroke-width: 0.8"/>
      </g>
     </g>
     <g id="text_12">
      <!-- 600 -->
      <g transform="translate(63.9125 406.16845)scale(0.1 -0.1)">
       <use xlink:href="#DejaVuSans-36"/>
       <use xlink:href="#DejaVuSans-30" x="63.623047"/>
       <use xlink:href="#DejaVuSans-30" x="127.246094"/>
      </g>
     </g>
    </g>
    <g id="ytick_4">
     <g id="line2d_12">
      <g>
       <use xlink:href="#m482636d381" x="90" y="305.446154" style="stroke: #000000; stroke-width: 0.8"/>
      </g>
     </g>
     <g id="text_13">
      <!-- 700 -->
      <g transform="translate(63.9125 309.245373)scale(0.1 -0.1)">
       <defs>
        <path id="DejaVuSans-37" d="M 525 4666 
L 3525 4666 
L 3525 4397 
L 1831 0 
L 1172 0 
L 2766 4134 
L 525 4134 
L 525 4666 
z
" transform="scale(0.015625)"/>
       </defs>
       <use xlink:href="#DejaVuSans-37"/>
       <use xlink:href="#DejaVuSans-30" x="63.623047"/>
       <use xlink:href="#DejaVuSans-30" x="127.246094"/>
      </g>
     </g>
    </g>
    <g id="ytick_5">
     <g id="line2d_13">
      <g>
       <use xlink:href="#m482636d381" x="90" y="208.523077" style="stroke: #000000; stroke-width: 0.8"/>
      </g>
     </g>
     <g id="text_14">
      <!-- 800 -->
      <g transform="translate(63.9125 212.322296)scale(0.1 -0.1)">
       <use xlink:href="#DejaVuSans-38"/>
       <use xlink:href="#DejaVuSans-30" x="63.623047"/>
       <use xlink:href="#DejaVuSans-30" x="127.246094"/>
      </g>
     </g>
    </g>
    <g id="ytick_6">
     <g id="line2d_14">
      <g>
       <use xlink:href="#m482636d381" x="90" y="111.6" style="stroke: #000000; stroke-width: 0.8"/>
      </g>
     </g>
     <g id="text_15">
      <!-- 900 -->
      <g transform="translate(63.9125 115.399219)scale(0.1 -0.1)">
       <defs>
        <path id="DejaVuSans-39" d="M 703 97 
L 703 672 
Q 941 559 1184 500 
Q 1428 441 1663 441 
Q 2288 441 2617 861 
Q 2947 1281 2994 2138 
Q 2813 1869 2534 1725 
Q 2256 1581 1919 1581 
Q 1219 1581 811 2004 
Q 403 2428 403 3163 
Q 403 3881 828 4315 
Q 1253 4750 1959 4750 
Q 2769 4750 3195 4129 
Q 3622 3509 3622 2328 
Q 3622 1225 3098 567 
Q 2575 -91 1691 -91 
Q 1453 -91 1209 -44 
Q 966 3 703 97 
z
M 1959 2075 
Q 2384 2075 2632 2365 
Q 2881 2656 2881 3163 
Q 2881 3666 2632 3958 
Q 2384 4250 1959 4250 
Q 1534 4250 1286 3958 
Q 1038 3666 1038 3163 
Q 1038 2656 1286 2365 
Q 1534 2075 1959 2075 
z
" transform="scale(0.015625)"/>
       </defs>
       <use xlink:href="#DejaVuSans-39"/>
       <use xlink:href="#DejaVuSans-30" x="63.623047"/>
       <use xlink:href="#DejaVuSans-30" x="127.246094"/>
      </g>
     </g>
    </g>
    <g id="text_16">
     <!-- Altitude(km) -->
     <g transform="translate(56.792969 410.408203)rotate(-90)scale(0.15 -0.15)">
      <defs>
       <path id="DejaVuSans-41" d="M 2188 4044 
L 1331 1722 
L 3047 1722 
L 2188 4044 
z
M 1831 4666 
L 2547 4666 
L 4325 0 
L 3669 0 
L 3244 1197 
L 1141 1197 
L 716 0 
L 50 0 
L 1831 4666 
z
" transform="scale(0.015625)"/>
       <path id="DejaVuSans-6c" d="M 603 4863 
L 1178 4863 
L 1178 0 
L 603 0 
L 603 4863 
z
" transform="scale(0.015625)"/>
       <path id="DejaVuSans-74" d="M 1172 4494 
L 1172 3500 
L 2356 3500 
L 2356 3053 
L 1172 3053 
L 1172 1153 
Q 1172 725 1289 603 
Q 1406 481 1766 481 
L 2356 481 
L 2356 0 
L 1766 0 
Q 1100 0 847 248 
Q 594 497 594 1153 
L 594 3053 
L 172 3053 
L 172 3500 
L 594 3500 
L 594 4494 
L 1172 4494 
z
" transform="scale(0.015625)"/>
       <path id="DejaVuSans-69" d="M 603 3500 
L 1178 3500 
L 1178 0 
L 603 0 
L 603 3500 
z
M 603 4863 
L 1178 4863 
L 1178 4134 
L 603 4134 
L 603 4863 
z
" transform="scale(0.015625)"/>
       <path id="DejaVuSans-75" d="M 544 1381 
L 544 3500 
L 1119 3500 
L 1119 1403 
Q 1119 906 1312 657 
Q 1506 409 1894 409 
Q 2359 409 2629 706 
Q 2900 1003 2900 1516 
L 2900 3500 
L 3475 3500 
L 3475 0 
L 2900 0 
L 2900 538 
Q 2691 219 2414 64 
Q 2138 -91 1772 -91 
Q 1169 -91 856 284 
Q 544 659 544 1381 
z
M 1991 3584 
L 1991 3584 
z
" transform="scale(0.015625)"/>
       <path id="DejaVuSans-64" d="M 2906 2969 
L 2906 4863 
L 3481 4863 
L 3481 0 
L 2906 0 
L 2906 525 
Q 2725 213 2448 61 
Q 2172 -91 1784 -91 
Q 1150 -91 751 415 
Q 353 922 353 1747 
Q 353 2572 751 3078 
Q 1150 3584 1784 3584 
Q 2172 3584 2448 3432 
Q 2725 3281 2906 2969 
z
M 947 1747 
Q 947 1113 1208 752 
Q 1469 391 1925 391 
Q 2381 391 2643 752 
Q 2906 1113 2906 1747 
Q 2906 2381 2643 2742 
Q 2381 3103 1925 3103 
Q 1469 3103 1208 2742 
Q 947 2381 947 1747 
z
" transform="scale(0.015625)"/>
       <path id="DejaVuSans-65" d="M 3597 1894 
L 3597 1613 
L 953 1613 
Q 991 1019 1311 708 
Q 1631 397 2203 397 
Q 2534 397 2845 478 
Q 3156 559 3463 722 
L 3463 178 
Q 3153 47 2828 -22 
Q 2503 -91 2169 -91 
Q 1331 -91 842 396 
Q 353 884 353 1716 
Q 353 2575 817 3079 
Q 1281 3584 2069 3584 
Q 2775 3584 3186 3129 
Q 3597 2675 3597 1894 
z
M 3022 2063 
Q 3016 2534 2758 2815 
Q 2500 3097 2075 3097 
Q 1594 3097 1305 2825 
Q 1016 2553 972 2059 
L 3022 2063 
z
" transform="scale(0.015625)"/>
       <path id="DejaVuSans-6d" d="M 3328 2828 
Q 3544 3216 3844 3400 
Q 4144 3584 4550 3584 
Q 5097 3584 5394 3201 
Q 5691 2819 5691 2113 
L 5691 0 
L 5113 0 
L 5113 2094 
Q 5113 2597 4934 2840 
Q 4756 3084 4391 3084 
Q 3944 3084 3684 2787 
Q 3425 2491 3425 1978 
L 3425 0 
L 2847 0 
L 2847 2094 
Q 2847 2600 2669 2842 
Q 2491 3084 2119 3084 
Q 1678 3084 1418 2786 
Q 1159 2488 1159 1978 
L 1159 0 
L 581 0 
L 581 3500 
L 1159 3500 
L 1159 2956 
Q 1356 3278 1631 3431 
Q 1906 3584 2284 3584 
Q 2666 3584 2933 3390 
Q 3200 3197 3328 2828 
z
" transform="scale(0.015625)"/>
      </defs>
      <use xlink:href="#DejaVuSans-41"/>
      <use xlink:href="#DejaVuSans-6c" x="68.408203"/>
      <use xlink:href="#DejaVuSans-74" x="96.191406"/>
      <use xlink:href="#DejaVuSans-69" x="135.400391"/>
      <use xlink:href="#DejaVuSans-74" x="163.183594"/>
      <use xlink:href="#DejaVuSans-75" x="202.392578"/>
      <use xlink:href="#DejaVuSans-64" x="265.771484"/>
      <use xlink:href="#DejaVuSans-65" x="329.248047"/>
      <use xlink:href="#DejaVuSans-28" x="390.771484"/>
      <use xlink:href="#DejaVuSans-6b" x="429.785156"/>
      <use xlink:href="#DejaVuSans-6d" x="487.695312"/>
      <use xlink:href="#DejaVuSans-29" x="585.107422"/>
     </g>
    </g>
   </g>
   <g id="patch_3">
    <path d="M 90 640.8 
L 90 86.4 
" style="fill: none; stroke: #000000; stroke-width: 0.8; stroke-linejoin: miter; stroke-linecap: square"/>
   </g>
   <g id="patch_4">
    <path d="M 648 640.8 
L 648 86.4 
" style="fill: none; stroke: #000000; stroke-width: 0.8; stroke-linejoin: miter; stroke-linecap: square"/>
   </g>
   <g id="patch_5">
    <path d="M 90 640.8 
L 648 640.8 
" style="fill: none; stroke: #000000; stroke-width: 0.8; stroke-linejoin: miter; stroke-linecap: square"/>
   </g>
   <g id="patch_6">
    <path d="M 90 86.4 
L 648 86.4 
" style="fill: none; stroke: #000000; stroke-width: 0.8; stroke-linejoin: miter; stroke-linecap: square"/>
   </g>
   <g id="text_17">
    <!-- 1U -->
    <g transform="translate(125.931818 188.169231)scale(0.1 -0.1)">
     <defs>
      <path id="DejaVuSans-55" d="M 556 4666 
L 1191 4666 
L 1191 1831 
Q 1191 1081 1462 751 
Q 1734 422 2344 422 
Q 2950 422 3222 751 
Q 3494 1081 3494 1831 
L 3494 4666 
L 4128 4666 
L 4128 1753 
Q 4128 841 3676 375 
Q 3225 -91 2344 -91 
Q 1459 -91 1007 375 
Q 556 841 556 1753 
L 556 4666 
z
" transform="scale(0.015625)"/>
     </defs>
     <use xlink:href="#DejaVuSans-31"/>
     <use xlink:href="#DejaVuSans-55" x="63.623047"/>
    </g>
   </g>
   <g id="text_18">
    <!-- 6U -->
    <g transform="translate(369 110.630769)scale(0.1 -0.1)">
     <use xlink:href="#DejaVuSans-36"/>
     <use xlink:href="#DejaVuSans-55" x="63.623047"/>
    </g>
   </g>
   <g id="text_19">
    <!-- 6U -->
    <g transform="translate(284.454545 207.553846)scale(0.1 -0.1)">
     <use xlink:href="#DejaVuSans-36"/>
     <use xlink:href="#DejaVuSans-55" x="63.623047"/>
    </g>
   </g>
   <g id="text_20">
    <!-- 6U -->
    <g transform="translate(513.431818 590.4)scale(0.1 -0.1)">
     <use xlink:href="#DejaVuSans-36"/>
     <use xlink:href="#DejaVuSans-55" x="63.623047"/>
    </g>
   </g>
   <g id="text_21">
    <!-- 2U -->
    <g transform="translate(157.636364 546.784615)scale(0.1 -0.1)">
     <use xlink:href="#DejaVuSans-32"/>
     <use xlink:href="#DejaVuSans-55" x="63.623047"/>
    </g>
   </g>
   <g id="text_22">
    <!-- 3U -->
    <g transform="translate(189.340909 411.092308)scale(0.1 -0.1)">
     <defs>
      <path id="DejaVuSans-33" d="M 2597 2516 
Q 3050 2419 3304 2112 
Q 3559 1806 3559 1356 
Q 3559 666 3084 287 
Q 2609 -91 1734 -91 
Q 1441 -91 1130 -33 
Q 819 25 488 141 
L 488 750 
Q 750 597 1062 519 
Q 1375 441 1716 441 
Q 2309 441 2620 675 
Q 2931 909 2931 1356 
Q 2931 1769 2642 2001 
Q 2353 2234 1838 2234 
L 1294 2234 
L 1294 2753 
L 1863 2753 
Q 2328 2753 2575 2939 
Q 2822 3125 2822 3475 
Q 2822 3834 2567 4026 
Q 2313 4219 1838 4219 
Q 1578 4219 1281 4162 
Q 984 4106 628 3988 
L 628 4550 
Q 988 4650 1302 4700 
Q 1616 4750 1894 4750 
Q 2613 4750 3031 4423 
Q 3450 4097 3450 3541 
Q 3450 3153 3228 2886 
Q 3006 2619 2597 2516 
z
" transform="scale(0.015625)"/>
     </defs>
     <use xlink:href="#DejaVuSans-33"/>
     <use xlink:href="#DejaVuSans-55" x="63.623047"/>
    </g>
   </g>
   <g id="text_23">
    <!-- 3U -->
    <g transform="translate(196.386364 498.323077)scale(0.1 -0.1)">
     <use xlink:href="#DejaVuSans-33"/>
     <use xlink:href="#DejaVuSans-55" x="63.623047"/>
    </g>
   </g>
   <g id="text_24">
    <!-- 1U -->
    <g transform="translate(125.931818 285.092308)scale(0.1 -0.1)">
     <use xlink:href="#DejaVuSans-31"/>
     <use xlink:href="#DejaVuSans-55" x="63.623047"/>
    </g>
   </g>
   <g id="text_25">
    <!-- 3U -->
    <g transform="translate(214 502.2)scale(0.1 -0.1)">
     <use xlink:href="#DejaVuSans-33"/>
     <use xlink:href="#DejaVuSans-55" x="63.623047"/>
    </g>
   </g>
   <g id="text_26">
    <!-- 3U -->
    <g transform="translate(231.613636 319.015385)scale(0.1 -0.1)">
     <use xlink:href="#DejaVuSans-33"/>
     <use xlink:href="#DejaVuSans-55" x="63.623047"/>
    </g>
   </g>
   <g id="text_27">
    <!-- 12U -->
    <g transform="translate(548.659091 401.4)scale(0.1 -0.1)">
     <use xlink:href="#DejaVuSans-31"/>
     <use xlink:href="#DejaVuSans-32" x="63.623047"/>
     <use xlink:href="#DejaVuSans-55" x="127.246094"/>
    </g>
   </g>
   <g id="text_28">
    <!-- 12U -->
    <g transform="translate(587.409091 614.630769)scale(0.1 -0.1)">
     <use xlink:href="#DejaVuSans-31"/>
     <use xlink:href="#DejaVuSans-32" x="63.623047"/>
     <use xlink:href="#DejaVuSans-55" x="127.246094"/>
    </g>
   </g>
   <g id="text_29">
    <!-- 8U -->
    <g transform="translate(383.090909 372.323077)scale(0.1 -0.1)">
     <use xlink:href="#DejaVuSans-38"/>
     <use xlink:href="#DejaVuSans-55" x="63.623047"/>
    </g>
   </g>
   <g id="text_30">
    <!-- 12U -->
    <g transform="translate(633.204545 527.4)scale(0.1 -0.1)">
     <use xlink:href="#DejaVuSans-31"/>
     <use xlink:href="#DejaVuSans-32" x="63.623047"/>
     <use xlink:href="#DejaVuSans-55" x="127.246094"/>
    </g>
   </g>
   <g id="text_31">
    <!-- 6U -->
    <g transform="translate(442.977273 469.246154)scale(0.1 -0.1)">
     <use xlink:href="#DejaVuSans-36"/>
     <use xlink:href="#DejaVuSans-55" x="63.623047"/>
    </g>
   </g>
   <g id="text_32">
    <!-- 6U -->
    <g transform="translate(387.670455 236.630769)scale(0.1 -0.1)">
     <use xlink:href="#DejaVuSans-36"/>
     <use xlink:href="#DejaVuSans-55" x="63.623047"/>
    </g>
   </g>
  </g>
 </g>
 <defs>
  <clipPath id="pb60391e961">
   <rect x="90" y="86.4" width="558" height="554.4"/>
  </clipPath>
 </defs>
</svg>
