<?xml version="1.0" encoding="utf-8" standalone="no"?>
<!DOCTYPE svg PUBLIC "-//W3C//DTD SVG 1.1//EN"
  "http://www.w3.org/Graphics/SVG/1.1/DTD/svg11.dtd">
<svg xmlns:xlink="http://www.w3.org/1999/xlink" width="720pt" height="720pt" viewBox="0 0 720 720" xmlns="http://www.w3.org/2000/svg" version="1.1">
 <metadata>
  <rdf:RDF xmlns:dc="http://purl.org/dc/elements/1.1/" xmlns:cc="http://creativecommons.org/ns#" xmlns:rdf="http://www.w3.org/1999/02/22-rdf-syntax-ns#">
   <cc:Work>
    <dc:type rdf:resource="http://purl.org/dc/dcmitype/StillImage"/>
    <dc:date>2022-03-08T05:21:49.628935</dc:date>
    <dc:format>image/svg+xml</dc:format>
    <dc:creator>
     <cc:Agent>
      <dc:title>Matplotlib v3.5.0, https://matplotlib.org/</dc:title>
     </cc:Agent>
    </dc:creator>
   </cc:Work>
  </rdf:RDF>
 </metadata>
 <defs>
  <style type="text/css">*{stroke-linejoin: round; stroke-linecap: butt}</style>
 </defs>
 <g id="figure_1">
  <g id="patch_1">
   <path d="M 0 720 
L 720 720 
L 720 0 
L 0 0 
z
" style="fill: #ffffff"/>
  </g>
  <g id="axes_1">
   <g id="patch_2">
    <path d="M 90 640.8 
L 648 640.8 
L 648 86.4 
L 90 86.4 
z
" style="fill: #ffffff"/>
   </g>
   <g id="PathCollection_1">
    <path d="M 115.363636 199.138462 
C 118.015667 199.138462 120.559435 198.084798 122.434704 196.209529 
C 124.309973 194.33426 125.363636 191.790493 125.363636 189.138462 
C 125.363636 186.486431 124.309973 183.942663 122.434704 182.067394 
C 120.559435 180.192125 118.015667 179.138462 115.363636 179.138462 
C 112.711605 179.138462 110.167838 180.192125 108.292569 182.067394 
C 106.417299 183.942663 105.363636 186.486431 105.363636 189.138462 
C 105.363636 191.790493 106.417299 194.33426 108.292569 196.209529 
C 110.167838 198.084798 112.711605 199.138462 115.363636 199.138462 
z
" clip-path="url(#p1fba5fee66)" style="fill: #7fc97f; stroke: #ffffff"/>
    <path d="M 358.431818 136.094897 
C 364.927941 136.094897 371.158874 133.513961 375.752326 128.920508 
C 380.345779 124.327056 382.926716 118.096123 382.926716 111.6 
C 382.926716 105.103877 380.345779 98.872944 375.752326 94.279492 
C 371.158874 89.686039 364.927941 87.105103 358.431818 87.105103 
C 351.935695 87.105103 345.704763 89.686039 341.11131 94.279492 
C 336.517858 98.872944 333.936921 105.103877 333.936921 111.6 
C 333.936921 118.096123 336.517858 124.327056 341.11131 128.920508 
C 345.704763 133.513961 351.935695 136.094897 358.431818 136.094897 
z
" clip-path="url(#p1fba5fee66)" style="fill: #ffff99; stroke: #ffffff"/>
    <path d="M 273.886364 233.017974 
C 280.382486 233.017974 286.613419 230.437037 291.206872 225.843585 
C 295.800324 221.250133 298.381261 215.0192 298.381261 208.523077 
C 298.381261 202.026954 295.800324 195.796021 291.206872 191.202569 
C 286.613419 186.609116 280.382486 184.028179 273.886364 184.028179 
C 267.390241 184.028179 261.159308 186.609116 256.565856 191.202569 
C 251.972403 195.796021 249.391466 202.026954 249.391466 208.523077 
C 249.391466 215.0192 251.972403 221.250133 256.565856 225.843585 
C 261.159308 230.437037 267.390241 233.017974 273.886364 233.017974 
z
" clip-path="url(#p1fba5fee66)" style="fill: #ffff99; stroke: #ffffff"/>
    <path d="M 502.863636 615.864128 
C 509.359759 615.864128 515.590692 613.283191 520.184144 608.689739 
C 524.777597 604.096286 527.358534 597.865354 527.358534 591.369231 
C 527.358534 584.873108 524.777597 578.642175 520.184144 574.048723 
C 515.590692 569.45527 509.359759 566.874333 502.863636 566.874333 
C 496.367514 566.874333 490.136581 569.45527 485.543128 574.048723 
C 480.949676 578.642175 478.368739 584.873108 478.368739 591.369231 
C 478.368739 597.865354 480.949676 604.096286 485.543128 608.689739 
C 490.136581 613.283191 496.367514 615.864128 502.863636 615.864128 
z
" clip-path="url(#p1fba5fee66)" style="fill: #ffff99; stroke: #ffffff"/>
    <path d="M 147.068182 561.895982 
C 150.81872 561.895982 154.416151 560.405877 157.068182 557.753846 
C 159.720213 555.101815 161.210317 551.504384 161.210317 547.753846 
C 161.210317 544.003308 159.720213 540.405877 157.068182 537.753846 
C 154.416151 535.101815 150.81872 533.611711 147.068182 533.611711 
C 143.317644 533.611711 139.720213 535.101815 137.068182 537.753846 
C 134.416151 540.405877 132.926046 544.003308 132.926046 547.753846 
C 132.926046 551.504384 134.416151 555.101815 137.068182 557.753846 
C 139.720213 560.405877 143.317644 561.895982 147.068182 561.895982 
z
" clip-path="url(#p1fba5fee66)" style="fill: #7fc97f; stroke: #ffffff"/>
    <path d="M 178.772727 429.382047 
C 183.36618 429.382047 187.772115 427.557049 191.020176 424.308987 
C 194.268237 421.060926 196.093235 416.654991 196.093235 412.061538 
C 196.093235 407.468086 194.268237 403.062151 191.020176 399.81409 
C 187.772115 396.566028 183.36618 394.74103 178.772727 394.74103 
C 174.179275 394.74103 169.77334 396.566028 166.525279 399.81409 
C 163.277217 403.062151 161.452219 407.468086 161.452219 412.061538 
C 161.452219 416.654991 163.277217 421.060926 166.525279 424.308987 
C 169.77334 427.557049 174.179275 429.382047 178.772727 429.382047 
z
" clip-path="url(#p1fba5fee66)" style="fill: #beaed4; stroke: #ffffff"/>
    <path d="M 185.818182 516.612816 
C 190.411634 516.612816 194.817569 514.787818 198.065631 511.539756 
C 201.313692 508.291695 203.13869 503.88576 203.13869 499.292308 
C 203.13869 494.698855 201.313692 490.29292 198.065631 487.044859 
C 194.817569 483.796798 190.411634 481.9718 185.818182 481.9718 
C 181.224729 481.9718 176.818794 483.796798 173.570733 487.044859 
C 170.322672 490.29292 168.497674 494.698855 168.497674 499.292308 
C 168.497674 503.88576 170.322672 508.291695 173.570733 511.539756 
C 176.818794 514.787818 181.224729 516.612816 185.818182 516.612816 
z
" clip-path="url(#p1fba5fee66)" style="fill: #beaed4; stroke: #ffffff"/>
    <path d="M 115.363636 296.061538 
C 118.015667 296.061538 120.559435 295.007875 122.434704 293.132606 
C 124.309973 291.257337 125.363636 288.713569 125.363636 286.061538 
C 125.363636 283.409507 124.309973 280.86574 122.434704 278.990471 
C 120.559435 277.115202 118.015667 276.061538 115.363636 276.061538 
C 112.711605 276.061538 110.167838 277.115202 108.292569 278.990471 
C 106.417299 280.86574 105.363636 283.409507 105.363636 286.061538 
C 105.363636 288.713569 106.417299 291.257337 108.292569 293.132606 
C 110.167838 295.007875 112.711605 296.061538 115.363636 296.061538 
z
" clip-path="url(#p1fba5fee66)" style="fill: #7fc97f; stroke: #ffffff"/>
    <path d="M 203.431818 520.489739 
C 208.025271 520.489739 212.431206 518.664741 215.679267 515.416679 
C 218.927328 512.168618 220.752326 507.762683 220.752326 503.169231 
C 220.752326 498.575778 218.927328 494.169843 215.679267 490.921782 
C 212.431206 487.673721 208.025271 485.848723 203.431818 485.848723 
C 198.838366 485.848723 194.432431 487.673721 191.184369 490.921782 
C 187.936308 494.169843 186.11131 498.575778 186.11131 503.169231 
C 186.11131 507.762683 187.936308 512.168618 191.184369 515.416679 
C 194.432431 518.664741 198.838366 520.489739 203.431818 520.489739 
z
" clip-path="url(#p1fba5fee66)" style="fill: #beaed4; stroke: #ffffff"/>
    <path d="M 221.045455 337.305123 
C 225.638907 337.305123 230.044842 335.480125 233.292903 332.232064 
C 236.540965 328.984003 238.365963 324.578068 238.365963 319.984615 
C 238.365963 315.391163 236.540965 310.985228 233.292903 307.737167 
C 230.044842 304.489105 225.638907 302.664107 221.045455 302.664107 
C 216.452002 302.664107 212.046067 304.489105 208.798006 307.737167 
C 205.549944 310.985228 203.724946 315.391163 203.724946 319.984615 
C 203.724946 324.578068 205.549944 328.984003 208.798006 332.232064 
C 212.046067 335.480125 216.452002 337.305123 221.045455 337.305123 
z
" clip-path="url(#p1fba5fee66)" style="fill: #beaed4; stroke: #ffffff"/>
    <path d="M 538.090909 437.010247 
C 547.277814 437.010247 556.089684 433.360251 562.585807 426.864128 
C 569.081929 420.368005 572.731925 411.556136 572.731925 402.369231 
C 572.731925 393.182326 569.081929 384.370456 562.585807 377.874333 
C 556.089684 371.378211 547.277814 367.728215 538.090909 367.728215 
C 528.904004 367.728215 520.092134 371.378211 513.596012 377.874333 
C 507.099889 384.370456 503.449893 393.182326 503.449893 402.369231 
C 503.449893 411.556136 507.099889 420.368005 513.596012 426.864128 
C 520.092134 433.360251 528.904004 437.010247 538.090909 437.010247 
z
" clip-path="url(#p1fba5fee66)" style="fill: #666666; stroke: #ffffff"/>
    <path d="M 576.840909 650.241016 
C 586.027814 650.241016 594.839684 646.59102 601.335807 640.094897 
C 607.831929 633.598775 611.481925 624.786905 611.481925 615.6 
C 611.481925 606.413095 607.831929 597.601225 601.335807 591.105103 
C 594.839684 584.60898 586.027814 580.958984 576.840909 580.958984 
C 567.654004 580.958984 558.842134 584.60898 552.346012 591.105103 
C 545.849889 597.601225 542.199893 606.413095 542.199893 615.6 
C 542.199893 624.786905 545.849889 633.598775 552.346012 640.094897 
C 558.842134 646.59102 567.654004 650.241016 576.840909 650.241016 
z
" clip-path="url(#p1fba5fee66)" style="fill: #666666; stroke: #ffffff"/>
    <path d="M 372.522727 401.576579 
C 380.023804 401.576579 387.218665 398.59637 392.522727 393.292308 
C 397.826789 387.988246 400.806999 380.793384 400.806999 373.292308 
C 400.806999 365.791231 397.826789 358.59637 392.522727 353.292308 
C 387.218665 347.988246 380.023804 345.008036 372.522727 345.008036 
C 365.021651 345.008036 357.826789 347.988246 352.522727 353.292308 
C 347.218665 358.59637 344.238456 365.791231 344.238456 373.292308 
C 344.238456 380.793384 347.218665 387.988246 352.522727 393.292308 
C 357.826789 398.59637 365.021651 401.576579 372.522727 401.576579 
z
" clip-path="url(#p1fba5fee66)" style="fill: #f0027f; stroke: #ffffff"/>
    <path d="M 622.636364 563.010247 
C 631.823269 563.010247 640.635138 559.360251 647.131261 552.864128 
C 653.627384 546.368005 657.27738 537.556136 657.27738 528.369231 
C 657.27738 519.182326 653.627384 510.370456 647.131261 503.874333 
C 640.635138 497.378211 631.823269 493.728215 622.636364 493.728215 
C 613.449459 493.728215 604.637589 497.378211 598.141466 503.874333 
C 591.645343 510.370456 587.995347 519.182326 587.995347 528.369231 
C 587.995347 537.556136 591.645343 546.368005 598.141466 552.864128 
C 604.637589 559.360251 613.449459 563.010247 622.636364 563.010247 
z
" clip-path="url(#p1fba5fee66)" style="fill: #666666; stroke: #ffffff"/>
    <path d="M 432.409091 494.710282 
C 438.905214 494.710282 445.136147 492.129345 449.729599 487.535893 
C 454.323051 482.94244 456.903988 476.711507 456.903988 470.215385 
C 456.903988 463.719262 454.323051 457.488329 449.729599 452.894877 
C 445.136147 448.301424 438.905214 445.720487 432.409091 445.720487 
C 425.912968 445.720487 419.682035 448.301424 415.088583 452.894877 
C 410.49513 457.488329 407.914193 463.719262 407.914193 470.215385 
C 407.914193 476.711507 410.49513 482.94244 415.088583 487.535893 
C 419.682035 492.129345 425.912968 494.710282 432.409091 494.710282 
z
" clip-path="url(#p1fba5fee66)" style="fill: #ffff99; stroke: #ffffff"/>
    <path d="M 377.102273 262.094897 
C 383.598395 262.094897 389.829328 259.513961 394.422781 254.920508 
C 399.016233 250.327056 401.59717 244.096123 401.59717 237.6 
C 401.59717 231.103877 399.016233 224.872944 394.422781 220.279492 
C 389.829328 215.686039 383.598395 213.105103 377.102273 213.105103 
C 370.60615 213.105103 364.375217 215.686039 359.781765 220.279492 
C 355.188312 224.872944 352.607375 231.103877 352.607375 237.6 
C 352.607375 244.096123 355.188312 250.327056 359.781765 254.920508 
C 364.375217 259.513961 370.60615 262.094897 377.102273 262.094897 
z
" clip-path="url(#p1fba5fee66)" style="fill: #ffff99; stroke: #ffffff"/>
   </g>
   <g id="matplotlib.axis_1">
    <g id="xtick_1">
     <g id="line2d_1">
      <defs>
       <path id="mb843eaddf2" d="M 0 0 
L 0 3.5 
" style="stroke: #000000; stroke-width: 0.8"/>
      </defs>
      <g>
       <use xlink:href="#mb843eaddf2" x="150.590909" y="640.8" style="stroke: #000000; stroke-width: 0.8"/>
      </g>
     </g>
     <g id="text_1">
      <!-- 2 -->
      <g transform="translate(147.409659 655.398438)scale(0.1 -0.1)">
       <defs>
        <path id="DejaVuSans-32" d="M 1228 531 
L 3431 531 
L 3431 0 
L 469 0 
L 469 531 
Q 828 903 1448 1529 
Q 2069 2156 2228 2338 
Q 2531 2678 2651 2914 
Q 2772 3150 2772 3378 
Q 2772 3750 2511 3984 
Q 2250 4219 1831 4219 
Q 1534 4219 1204 4116 
Q 875 4013 500 3803 
L 500 4441 
Q 881 4594 1212 4672 
Q 1544 4750 1819 4750 
Q 2544 4750 2975 4387 
Q 3406 4025 3406 3419 
Q 3406 3131 3298 2873 
Q 3191 2616 2906 2266 
Q 2828 2175 2409 1742 
Q 1991 1309 1228 531 
z
" transform="scale(0.015625)"/>
       </defs>
       <use xlink:href="#DejaVuSans-32"/>
      </g>
     </g>
    </g>
    <g id="xtick_2">
     <g id="line2d_2">
      <g>
       <use xlink:href="#mb843eaddf2" x="221.045455" y="640.8" style="stroke: #000000; stroke-width: 0.8"/>
      </g>
     </g>
     <g id="text_2">
      <!-- 4 -->
      <g transform="translate(217.864205 655.398438)scale(0.1 -0.1)">
       <defs>
        <path id="DejaVuSans-34" d="M 2419 4116 
L 825 1625 
L 2419 1625 
L 2419 4116 
z
M 2253 4666 
L 3047 4666 
L 3047 1625 
L 3713 1625 
L 3713 1100 
L 3047 1100 
L 3047 0 
L 2419 0 
L 2419 1100 
L 313 1100 
L 313 1709 
L 2253 4666 
z
" transform="scale(0.015625)"/>
       </defs>
       <use xlink:href="#DejaVuSans-34"/>
      </g>
     </g>
    </g>
    <g id="xtick_3">
     <g id="line2d_3">
      <g>
       <use xlink:href="#mb843eaddf2" x="291.5" y="640.8" style="stroke: #000000; stroke-width: 0.8"/>
      </g>
     </g>
     <g id="text_3">
      <!-- 6 -->
      <g transform="translate(288.31875 655.398438)scale(0.1 -0.1)">
       <defs>
        <path id="DejaVuSans-36" d="M 2113 2584 
Q 1688 2584 1439 2293 
Q 1191 2003 1191 1497 
Q 1191 994 1439 701 
Q 1688 409 2113 409 
Q 2538 409 2786 701 
Q 3034 994 3034 1497 
Q 3034 2003 2786 2293 
Q 2538 2584 2113 2584 
z
M 3366 4563 
L 3366 3988 
Q 3128 4100 2886 4159 
Q 2644 4219 2406 4219 
Q 1781 4219 1451 3797 
Q 1122 3375 1075 2522 
Q 1259 2794 1537 2939 
Q 1816 3084 2150 3084 
Q 2853 3084 3261 2657 
Q 3669 2231 3669 1497 
Q 3669 778 3244 343 
Q 2819 -91 2113 -91 
Q 1303 -91 875 529 
Q 447 1150 447 2328 
Q 447 3434 972 4092 
Q 1497 4750 2381 4750 
Q 2619 4750 2861 4703 
Q 3103 4656 3366 4563 
z
" transform="scale(0.015625)"/>
       </defs>
       <use xlink:href="#DejaVuSans-36"/>
      </g>
     </g>
    </g>
    <g id="xtick_4">
     <g id="line2d_4">
      <g>
       <use xlink:href="#mb843eaddf2" x="361.954545" y="640.8" style="stroke: #000000; stroke-width: 0.8"/>
      </g>
     </g>
     <g id="text_4">
      <!-- 8 -->
      <g transform="translate(358.773295 655.398438)scale(0.1 -0.1)">
       <defs>
        <path id="DejaVuSans-38" d="M 2034 2216 
Q 1584 2216 1326 1975 
Q 1069 1734 1069 1313 
Q 1069 891 1326 650 
Q 1584 409 2034 409 
Q 2484 409 2743 651 
Q 3003 894 3003 1313 
Q 3003 1734 2745 1975 
Q 2488 2216 2034 2216 
z
M 1403 2484 
Q 997 2584 770 2862 
Q 544 3141 544 3541 
Q 544 4100 942 4425 
Q 1341 4750 2034 4750 
Q 2731 4750 3128 4425 
Q 3525 4100 3525 3541 
Q 3525 3141 3298 2862 
Q 3072 2584 2669 2484 
Q 3125 2378 3379 2068 
Q 3634 1759 3634 1313 
Q 3634 634 3220 271 
Q 2806 -91 2034 -91 
Q 1263 -91 848 271 
Q 434 634 434 1313 
Q 434 1759 690 2068 
Q 947 2378 1403 2484 
z
M 1172 3481 
Q 1172 3119 1398 2916 
Q 1625 2713 2034 2713 
Q 2441 2713 2670 2916 
Q 2900 3119 2900 3481 
Q 2900 3844 2670 4047 
Q 2441 4250 2034 4250 
Q 1625 4250 1398 4047 
Q 1172 3844 1172 3481 
z
" transform="scale(0.015625)"/>
       </defs>
       <use xlink:href="#DejaVuSans-38"/>
      </g>
     </g>
    </g>
    <g id="xtick_5">
     <g id="line2d_5">
      <g>
       <use xlink:href="#mb843eaddf2" x="432.409091" y="640.8" style="stroke: #000000; stroke-width: 0.8"/>
      </g>
     </g>
     <g id="text_5">
      <!-- 10 -->
      <g transform="translate(426.046591 655.398438)scale(0.1 -0.1)">
       <defs>
        <path id="DejaVuSans-31" d="M 794 531 
L 1825 531 
L 1825 4091 
L 703 3866 
L 703 4441 
L 1819 4666 
L 2450 4666 
L 2450 531 
L 3481 531 
L 3481 0 
L 794 0 
L 794 531 
z
" transform="scale(0.015625)"/>
        <path id="DejaVuSans-30" d="M 2034 4250 
Q 1547 4250 1301 3770 
Q 1056 3291 1056 2328 
Q 1056 1369 1301 889 
Q 1547 409 2034 409 
Q 2525 409 2770 889 
Q 3016 1369 3016 2328 
Q 3016 3291 2770 3770 
Q 2525 4250 2034 4250 
z
M 2034 4750 
Q 2819 4750 3233 4129 
Q 3647 3509 3647 2328 
Q 3647 1150 3233 529 
Q 2819 -91 2034 -91 
Q 1250 -91 836 529 
Q 422 1150 422 2328 
Q 422 3509 836 4129 
Q 1250 4750 2034 4750 
z
" transform="scale(0.015625)"/>
       </defs>
       <use xlink:href="#DejaVuSans-31"/>
       <use xlink:href="#DejaVuSans-30" x="63.623047"/>
      </g>
     </g>
    </g>
    <g id="xtick_6">
     <g id="line2d_6">
      <g>
       <use xlink:href="#mb843eaddf2" x="502.863636" y="640.8" style="stroke: #000000; stroke-width: 0.8"/>
      </g>
     </g>
     <g id="text_6">
      <!-- 12 -->
      <g transform="translate(496.501136 655.398438)scale(0.1 -0.1)">
       <use xlink:href="#DejaVuSans-31"/>
       <use xlink:href="#DejaVuSans-32" x="63.623047"/>
      </g>
     </g>
    </g>
    <g id="xtick_7">
     <g id="line2d_7">
      <g>
       <use xlink:href="#mb843eaddf2" x="573.318182" y="640.8" style="stroke: #000000; stroke-width: 0.8"/>
      </g>
     </g>
     <g id="text_7">
      <!-- 14 -->
      <g transform="translate(566.955682 655.398438)scale(0.1 -0.1)">
       <use xlink:href="#DejaVuSans-31"/>
       <use xlink:href="#DejaVuSans-34" x="63.623047"/>
      </g>
     </g>
    </g>
    <g id="xtick_8">
     <g id="line2d_8">
      <g>
       <use xlink:href="#mb843eaddf2" x="643.772727" y="640.8" style="stroke: #000000; stroke-width: 0.8"/>
      </g>
     </g>
     <g id="text_8">
      <!-- 16 -->
      <g transform="translate(637.410227 655.398438)scale(0.1 -0.1)">
       <use xlink:href="#DejaVuSans-31"/>
       <use xlink:href="#DejaVuSans-36" x="63.623047"/>
      </g>
     </g>
    </g>
    <g id="text_9">
     <!-- Mass(kg) -->
     <g transform="translate(335.162109 672.875781)scale(0.15 -0.15)">
      <defs>
       <path id="DejaVuSans-4d" d="M 628 4666 
L 1569 4666 
L 2759 1491 
L 3956 4666 
L 4897 4666 
L 4897 0 
L 4281 0 
L 4281 4097 
L 3078 897 
L 2444 897 
L 1241 4097 
L 1241 0 
L 628 0 
L 628 4666 
z
" transform="scale(0.015625)"/>
       <path id="DejaVuSans-61" d="M 2194 1759 
Q 1497 1759 1228 1600 
Q 959 1441 959 1056 
Q 959 750 1161 570 
Q 1363 391 1709 391 
Q 2188 391 2477 730 
Q 2766 1069 2766 1631 
L 2766 1759 
L 2194 1759 
z
M 3341 1997 
L 3341 0 
L 2766 0 
L 2766 531 
Q 2569 213 2275 61 
Q 1981 -91 1556 -91 
Q 1019 -91 701 211 
Q 384 513 384 1019 
Q 384 1609 779 1909 
Q 1175 2209 1959 2209 
L 2766 2209 
L 2766 2266 
Q 2766 2663 2505 2880 
Q 2244 3097 1772 3097 
Q 1472 3097 1187 3025 
Q 903 2953 641 2809 
L 641 3341 
Q 956 3463 1253 3523 
Q 1550 3584 1831 3584 
Q 2591 3584 2966 3190 
Q 3341 2797 3341 1997 
z
" transform="scale(0.015625)"/>
       <path id="DejaVuSans-73" d="M 2834 3397 
L 2834 2853 
Q 2591 2978 2328 3040 
Q 2066 3103 1784 3103 
Q 1356 3103 1142 2972 
Q 928 2841 928 2578 
Q 928 2378 1081 2264 
Q 1234 2150 1697 2047 
L 1894 2003 
Q 2506 1872 2764 1633 
Q 3022 1394 3022 966 
Q 3022 478 2636 193 
Q 2250 -91 1575 -91 
Q 1294 -91 989 -36 
Q 684 19 347 128 
L 347 722 
Q 666 556 975 473 
Q 1284 391 1588 391 
Q 1994 391 2212 530 
Q 2431 669 2431 922 
Q 2431 1156 2273 1281 
Q 2116 1406 1581 1522 
L 1381 1569 
Q 847 1681 609 1914 
Q 372 2147 372 2553 
Q 372 3047 722 3315 
Q 1072 3584 1716 3584 
Q 2034 3584 2315 3537 
Q 2597 3491 2834 3397 
z
" transform="scale(0.015625)"/>
       <path id="DejaVuSans-28" d="M 1984 4856 
Q 1566 4138 1362 3434 
Q 1159 2731 1159 2009 
Q 1159 1288 1364 580 
Q 1569 -128 1984 -844 
L 1484 -844 
Q 1016 -109 783 600 
Q 550 1309 550 2009 
Q 550 2706 781 3412 
Q 1013 4119 1484 4856 
L 1984 4856 
z
" transform="scale(0.015625)"/>
       <path id="DejaVuSans-6b" d="M 581 4863 
L 1159 4863 
L 1159 1991 
L 2875 3500 
L 3609 3500 
L 1753 1863 
L 3688 0 
L 2938 0 
L 1159 1709 
L 1159 0 
L 581 0 
L 581 4863 
z
" transform="scale(0.015625)"/>
       <path id="DejaVuSans-67" d="M 2906 1791 
Q 2906 2416 2648 2759 
Q 2391 3103 1925 3103 
Q 1463 3103 1205 2759 
Q 947 2416 947 1791 
Q 947 1169 1205 825 
Q 1463 481 1925 481 
Q 2391 481 2648 825 
Q 2906 1169 2906 1791 
z
M 3481 434 
Q 3481 -459 3084 -895 
Q 2688 -1331 1869 -1331 
Q 1566 -1331 1297 -1286 
Q 1028 -1241 775 -1147 
L 775 -588 
Q 1028 -725 1275 -790 
Q 1522 -856 1778 -856 
Q 2344 -856 2625 -561 
Q 2906 -266 2906 331 
L 2906 616 
Q 2728 306 2450 153 
Q 2172 0 1784 0 
Q 1141 0 747 490 
Q 353 981 353 1791 
Q 353 2603 747 3093 
Q 1141 3584 1784 3584 
Q 2172 3584 2450 3431 
Q 2728 3278 2906 2969 
L 2906 3500 
L 3481 3500 
L 3481 434 
z
" transform="scale(0.015625)"/>
       <path id="DejaVuSans-29" d="M 513 4856 
L 1013 4856 
Q 1481 4119 1714 3412 
Q 1947 2706 1947 2009 
Q 1947 1309 1714 600 
Q 1481 -109 1013 -844 
L 513 -844 
Q 928 -128 1133 580 
Q 1338 1288 1338 2009 
Q 1338 2731 1133 3434 
Q 928 4138 513 4856 
z
" transform="scale(0.015625)"/>
      </defs>
      <use xlink:href="#DejaVuSans-4d"/>
      <use xlink:href="#DejaVuSans-61" x="86.279297"/>
      <use xlink:href="#DejaVuSans-73" x="147.558594"/>
      <use xlink:href="#DejaVuSans-73" x="199.658203"/>
      <use xlink:href="#DejaVuSans-28" x="251.757812"/>
      <use xlink:href="#DejaVuSans-6b" x="290.771484"/>
      <use xlink:href="#DejaVuSans-67" x="348.681641"/>
      <use xlink:href="#DejaVuSans-29" x="412.158203"/>
     </g>
    </g>
   </g>
   <g id="matplotlib.axis_2">
    <g id="ytick_1">
     <g id="line2d_9">
      <defs>
       <path id="m92ea418a9d" d="M 0 0 
L -3.5 0 
" style="stroke: #000000; stroke-width: 0.8"/>
      </defs>
      <g>
       <use xlink:href="#m92ea418a9d" x="90" y="596.215385" style="stroke: #000000; stroke-width: 0.8"/>
      </g>
     </g>
     <g id="text_10">
      <!-- 400 -->
      <g transform="translate(63.9125 600.014603)scale(0.1 -0.1)">
       <use xlink:href="#DejaVuSans-34"/>
       <use xlink:href="#DejaVuSans-30" x="63.623047"/>
       <use xlink:href="#DejaVuSans-30" x="127.246094"/>
      </g>
     </g>
    </g>
    <g id="ytick_2">
     <g id="line2d_10">
      <g>
       <use xlink:href="#m92ea418a9d" x="90" y="499.292308" style="stroke: #000000; stroke-width: 0.8"/>
      </g>
     </g>
     <g id="text_11">
      <!-- 500 -->
      <g transform="translate(63.9125 503.091526)scale(0.1 -0.1)">
       <defs>
        <path id="DejaVuSans-35" d="M 691 4666 
L 3169 4666 
L 3169 4134 
L 1269 4134 
L 1269 2991 
Q 1406 3038 1543 3061 
Q 1681 3084 1819 3084 
Q 2600 3084 3056 2656 
Q 3513 2228 3513 1497 
Q 3513 744 3044 326 
Q 2575 -91 1722 -91 
Q 1428 -91 1123 -41 
Q 819 9 494 109 
L 494 744 
Q 775 591 1075 516 
Q 1375 441 1709 441 
Q 2250 441 2565 725 
Q 2881 1009 2881 1497 
Q 2881 1984 2565 2268 
Q 2250 2553 1709 2553 
Q 1456 2553 1204 2497 
Q 953 2441 691 2322 
L 691 4666 
z
" transform="scale(0.015625)"/>
       </defs>
       <use xlink:href="#DejaVuSans-35"/>
       <use xlink:href="#DejaVuSans-30" x="63.623047"/>
       <use xlink:href="#DejaVuSans-30" x="127.246094"/>
      </g>
     </g>
    </g>
    <g id="ytick_3">
     <g id="line2d_11">
      <g>
       <use xlink:href="#m92ea418a9d" x="90" y="402.369231" style="stroke: #000000; stroke-width: 0.8"/>
      </g>
     </g>
     <g id="text_12">
      <!-- 600 -->
      <g transform="translate(63.9125 406.16845)scale(0.1 -0.1)">
       <use xlink:href="#DejaVuSans-36"/>
       <use xlink:href="#DejaVuSans-30" x="63.623047"/>
       <use xlink:href="#DejaVuSans-30" x="127.246094"/>
      </g>
     </g>
    </g>
    <g id="ytick_4">
     <g id="line2d_12">
      <g>
       <use xlink:href="#m92ea418a9d" x="90" y="305.446154" style="stroke: #000000; stroke-width: 0.8"/>
      </g>
     </g>
     <g id="text_13">
      <!-- 700 -->
      <g transform="translate(63.9125 309.245373)scale(0.1 -0.1)">
       <defs>
        <path id="DejaVuSans-37" d="M 525 4666 
L 3525 4666 
L 3525 4397 
L 1831 0 
L 1172 0 
L 2766 4134 
L 525 4134 
L 525 4666 
z
" transform="scale(0.015625)"/>
       </defs>
       <use xlink:href="#DejaVuSans-37"/>
       <use xlink:href="#DejaVuSans-30" x="63.623047"/>
       <use xlink:href="#DejaVuSans-30" x="127.246094"/>
      </g>
     </g>
    </g>
    <g id="ytick_5">
     <g id="line2d_13">
      <g>
       <use xlink:href="#m92ea418a9d" x="90" y="208.523077" style="stroke: #000000; stroke-width: 0.8"/>
      </g>
     </g>
     <g id="text_14">
      <!-- 800 -->
      <g transform="translate(63.9125 212.322296)scale(0.1 -0.1)">
       <use xlink:href="#DejaVuSans-38"/>
       <use xlink:href="#DejaVuSans-30" x="63.623047"/>
       <use xlink:href="#DejaVuSans-30" x="127.246094"/>
      </g>
     </g>
    </g>
    <g id="ytick_6">
     <g id="line2d_14">
      <g>
       <use xlink:href="#m92ea418a9d" x="90" y="111.6" style="stroke: #000000; stroke-width: 0.8"/>
      </g>
     </g>
     <g id="text_15">
      <!-- 900 -->
      <g transform="translate(63.9125 115.399219)scale(0.1 -0.1)">
       <defs>
        <path id="DejaVuSans-39" d="M 703 97 
L 703 672 
Q 941 559 1184 500 
Q 1428 441 1663 441 
Q 2288 441 2617 861 
Q 2947 1281 2994 2138 
Q 2813 1869 2534 1725 
Q 2256 1581 1919 1581 
Q 1219 1581 811 2004 
Q 403 2428 403 3163 
Q 403 3881 828 4315 
Q 1253 4750 1959 4750 
Q 2769 4750 3195 4129 
Q 3622 3509 3622 2328 
Q 3622 1225 3098 567 
Q 2575 -91 1691 -91 
Q 1453 -91 1209 -44 
Q 966 3 703 97 
z
M 1959 2075 
Q 2384 2075 2632 2365 
Q 2881 2656 2881 3163 
Q 2881 3666 2632 3958 
Q 2384 4250 1959 4250 
Q 1534 4250 1286 3958 
Q 1038 3666 1038 3163 
Q 1038 2656 1286 2365 
Q 1534 2075 1959 2075 
z
" transform="scale(0.015625)"/>
       </defs>
       <use xlink:href="#DejaVuSans-39"/>
       <use xlink:href="#DejaVuSans-30" x="63.623047"/>
       <use xlink:href="#DejaVuSans-30" x="127.246094"/>
      </g>
     </g>
    </g>
    <g id="text_16">
     <!-- Alt(km) -->
     <g transform="translate(56.792969 391.255078)rotate(-90)scale(0.15 -0.15)">
      <defs>
       <path id="DejaVuSans-41" d="M 2188 4044 
L 1331 1722 
L 3047 1722 
L 2188 4044 
z
M 1831 4666 
L 2547 4666 
L 4325 0 
L 3669 0 
L 3244 1197 
L 1141 1197 
L 716 0 
L 50 0 
L 1831 4666 
z
" transform="scale(0.015625)"/>
       <path id="DejaVuSans-6c" d="M 603 4863 
L 1178 4863 
L 1178 0 
L 603 0 
L 603 4863 
z
" transform="scale(0.015625)"/>
       <path id="DejaVuSans-74" d="M 1172 4494 
L 1172 3500 
L 2356 3500 
L 2356 3053 
L 1172 3053 
L 1172 1153 
Q 1172 725 1289 603 
Q 1406 481 1766 481 
L 2356 481 
L 2356 0 
L 1766 0 
Q 1100 0 847 248 
Q 594 497 594 1153 
L 594 3053 
L 172 3053 
L 172 3500 
L 594 3500 
L 594 4494 
L 1172 4494 
z
" transform="scale(0.015625)"/>
       <path id="DejaVuSans-6d" d="M 3328 2828 
Q 3544 3216 3844 3400 
Q 4144 3584 4550 3584 
Q 5097 3584 5394 3201 
Q 5691 2819 5691 2113 
L 5691 0 
L 5113 0 
L 5113 2094 
Q 5113 2597 4934 2840 
Q 4756 3084 4391 3084 
Q 3944 3084 3684 2787 
Q 3425 2491 3425 1978 
L 3425 0 
L 2847 0 
L 2847 2094 
Q 2847 2600 2669 2842 
Q 2491 3084 2119 3084 
Q 1678 3084 1418 2786 
Q 1159 2488 1159 1978 
L 1159 0 
L 581 0 
L 581 3500 
L 1159 3500 
L 1159 2956 
Q 1356 3278 1631 3431 
Q 1906 3584 2284 3584 
Q 2666 3584 2933 3390 
Q 3200 3197 3328 2828 
z
" transform="scale(0.015625)"/>
      </defs>
      <use xlink:href="#DejaVuSans-41"/>
      <use xlink:href="#DejaVuSans-6c" x="68.408203"/>
      <use xlink:href="#DejaVuSans-74" x="96.191406"/>
      <use xlink:href="#DejaVuSans-28" x="135.400391"/>
      <use xlink:href="#DejaVuSans-6b" x="174.414062"/>
      <use xlink:href="#DejaVuSans-6d" x="232.324219"/>
      <use xlink:href="#DejaVuSans-29" x="329.736328"/>
     </g>
    </g>
   </g>
   <g id="patch_3">
    <path d="M 90 640.8 
L 90 86.4 
" style="fill: none; stroke: #000000; stroke-width: 0.8; stroke-linejoin: miter; stroke-linecap: square"/>
   </g>
   <g id="patch_4">
    <path d="M 648 640.8 
L 648 86.4 
" style="fill: none; stroke: #000000; stroke-width: 0.8; stroke-linejoin: miter; stroke-linecap: square"/>
   </g>
   <g id="patch_5">
    <path d="M 90 640.8 
L 648 640.8 
" style="fill: none; stroke: #000000; stroke-width: 0.8; stroke-linejoin: miter; stroke-linecap: square"/>
   </g>
   <g id="patch_6">
    <path d="M 90 86.4 
L 648 86.4 
" style="fill: none; stroke: #000000; stroke-width: 0.8; stroke-linejoin: miter; stroke-linecap: square"/>
   </g>
   <g id="legend_1">
    <g id="patch_7">
     <path d="M 596.2 197.146875 
L 641 197.146875 
Q 643 197.146875 643 195.146875 
L 643 93.4 
Q 643 91.4 641 91.4 
L 596.2 91.4 
Q 594.2 91.4 594.2 93.4 
L 594.2 195.146875 
Q 594.2 197.146875 596.2 197.146875 
z
" style="fill: #ffffff; opacity: 0.8; stroke: #cccccc; stroke-linejoin: miter"/>
    </g>
    <g id="text_17">
     <!-- Unit -->
     <g transform="translate(608.422656 102.998437)scale(0.1 -0.1)">
      <defs>
       <path id="DejaVuSans-55" d="M 556 4666 
L 1191 4666 
L 1191 1831 
Q 1191 1081 1462 751 
Q 1734 422 2344 422 
Q 2950 422 3222 751 
Q 3494 1081 3494 1831 
L 3494 4666 
L 4128 4666 
L 4128 1753 
Q 4128 841 3676 375 
Q 3225 -91 2344 -91 
Q 1459 -91 1007 375 
Q 556 841 556 1753 
L 556 4666 
z
" transform="scale(0.015625)"/>
       <path id="DejaVuSans-6e" d="M 3513 2113 
L 3513 0 
L 2938 0 
L 2938 2094 
Q 2938 2591 2744 2837 
Q 2550 3084 2163 3084 
Q 1697 3084 1428 2787 
Q 1159 2491 1159 1978 
L 1159 0 
L 581 0 
L 581 3500 
L 1159 3500 
L 1159 2956 
Q 1366 3272 1645 3428 
Q 1925 3584 2291 3584 
Q 2894 3584 3203 3211 
Q 3513 2838 3513 2113 
z
" transform="scale(0.015625)"/>
       <path id="DejaVuSans-69" d="M 603 3500 
L 1178 3500 
L 1178 0 
L 603 0 
L 603 3500 
z
M 603 4863 
L 1178 4863 
L 1178 4134 
L 603 4134 
L 603 4863 
z
" transform="scale(0.015625)"/>
      </defs>
      <use xlink:href="#DejaVuSans-55"/>
      <use xlink:href="#DejaVuSans-6e" x="73.193359"/>
      <use xlink:href="#DejaVuSans-69" x="136.572266"/>
      <use xlink:href="#DejaVuSans-74" x="164.355469"/>
     </g>
    </g>
    <g id="line2d_15">
     <defs>
      <path id="m0967bfd0c0" d="M 0 3 
C 0.795609 3 1.55874 2.683901 2.12132 2.12132 
C 2.683901 1.55874 3 0.795609 3 0 
C 3 -0.795609 2.683901 -1.55874 2.12132 -2.12132 
C 1.55874 -2.683901 0.795609 -3 0 -3 
C -0.795609 -3 -1.55874 -2.683901 -2.12132 -2.12132 
C -2.683901 -1.55874 -3 -0.795609 -3 0 
C -3 0.795609 -2.683901 1.55874 -2.12132 2.12132 
C -1.55874 2.683901 -0.795609 3 0 3 
z
" style="stroke: #7fc97f"/>
     </defs>
     <g>
      <use xlink:href="#m0967bfd0c0" x="608.2" y="114.176562" style="fill: #7fc97f; stroke: #7fc97f"/>
     </g>
    </g>
    <g id="text_18">
     <!-- $\mathdefault{1}$ -->
     <g transform="translate(626.2 117.676562)scale(0.1 -0.1)">
      <use xlink:href="#DejaVuSans-31" transform="translate(0 0.09375)"/>
     </g>
    </g>
    <g id="line2d_16">
     <g>
      <use xlink:href="#m0967bfd0c0" x="608.2" y="128.854687" style="fill: #7fc97f; stroke: #7fc97f"/>
     </g>
    </g>
    <g id="text_19">
     <!-- $\mathdefault{2}$ -->
     <g transform="translate(626.2 132.354687)scale(0.1 -0.1)">
      <use xlink:href="#DejaVuSans-32" transform="translate(0 0.78125)"/>
     </g>
    </g>
    <g id="line2d_17">
     <defs>
      <path id="m340343c090" d="M 0 3 
C 0.795609 3 1.55874 2.683901 2.12132 2.12132 
C 2.683901 1.55874 3 0.795609 3 0 
C 3 -0.795609 2.683901 -1.55874 2.12132 -2.12132 
C 1.55874 -2.683901 0.795609 -3 0 -3 
C -0.795609 -3 -1.55874 -2.683901 -2.12132 -2.12132 
C -2.683901 -1.55874 -3 -0.795609 -3 0 
C -3 0.795609 -2.683901 1.55874 -2.12132 2.12132 
C -1.55874 2.683901 -0.795609 3 0 3 
z
" style="stroke: #beaed4"/>
     </defs>
     <g>
      <use xlink:href="#m340343c090" x="608.2" y="143.532812" style="fill: #beaed4; stroke: #beaed4"/>
     </g>
    </g>
    <g id="text_20">
     <!-- $\mathdefault{3}$ -->
     <g transform="translate(626.2 147.032812)scale(0.1 -0.1)">
      <defs>
       <path id="DejaVuSans-33" d="M 2597 2516 
Q 3050 2419 3304 2112 
Q 3559 1806 3559 1356 
Q 3559 666 3084 287 
Q 2609 -91 1734 -91 
Q 1441 -91 1130 -33 
Q 819 25 488 141 
L 488 750 
Q 750 597 1062 519 
Q 1375 441 1716 441 
Q 2309 441 2620 675 
Q 2931 909 2931 1356 
Q 2931 1769 2642 2001 
Q 2353 2234 1838 2234 
L 1294 2234 
L 1294 2753 
L 1863 2753 
Q 2328 2753 2575 2939 
Q 2822 3125 2822 3475 
Q 2822 3834 2567 4026 
Q 2313 4219 1838 4219 
Q 1578 4219 1281 4162 
Q 984 4106 628 3988 
L 628 4550 
Q 988 4650 1302 4700 
Q 1616 4750 1894 4750 
Q 2613 4750 3031 4423 
Q 3450 4097 3450 3541 
Q 3450 3153 3228 2886 
Q 3006 2619 2597 2516 
z
" transform="scale(0.015625)"/>
      </defs>
      <use xlink:href="#DejaVuSans-33" transform="translate(0 0.78125)"/>
     </g>
    </g>
    <g id="line2d_18">
     <defs>
      <path id="m3b20bdf635" d="M 0 3 
C 0.795609 3 1.55874 2.683901 2.12132 2.12132 
C 2.683901 1.55874 3 0.795609 3 0 
C 3 -0.795609 2.683901 -1.55874 2.12132 -2.12132 
C 1.55874 -2.683901 0.795609 -3 0 -3 
C -0.795609 -3 -1.55874 -2.683901 -2.12132 -2.12132 
C -2.683901 -1.55874 -3 -0.795609 -3 0 
C -3 0.795609 -2.683901 1.55874 -2.12132 2.12132 
C -1.55874 2.683901 -0.795609 3 0 3 
z
" style="stroke: #ffff99"/>
     </defs>
     <g>
      <use xlink:href="#m3b20bdf635" x="608.2" y="158.210937" style="fill: #ffff99; stroke: #ffff99"/>
     </g>
    </g>
    <g id="text_21">
     <!-- $\mathdefault{6}$ -->
     <g transform="translate(626.2 161.710937)scale(0.1 -0.1)">
      <use xlink:href="#DejaVuSans-36" transform="translate(0 0.78125)"/>
     </g>
    </g>
    <g id="line2d_19">
     <defs>
      <path id="m439d0b574c" d="M 0 3 
C 0.795609 3 1.55874 2.683901 2.12132 2.12132 
C 2.683901 1.55874 3 0.795609 3 0 
C 3 -0.795609 2.683901 -1.55874 2.12132 -2.12132 
C 1.55874 -2.683901 0.795609 -3 0 -3 
C -0.795609 -3 -1.55874 -2.683901 -2.12132 -2.12132 
C -2.683901 -1.55874 -3 -0.795609 -3 0 
C -3 0.795609 -2.683901 1.55874 -2.12132 2.12132 
C -1.55874 2.683901 -0.795609 3 0 3 
z
" style="stroke: #f0027f"/>
     </defs>
     <g>
      <use xlink:href="#m439d0b574c" x="608.2" y="172.889062" style="fill: #f0027f; stroke: #f0027f"/>
     </g>
    </g>
    <g id="text_22">
     <!-- $\mathdefault{8}$ -->
     <g transform="translate(626.2 176.389062)scale(0.1 -0.1)">
      <use xlink:href="#DejaVuSans-38" transform="translate(0 0.78125)"/>
     </g>
    </g>
    <g id="line2d_20">
     <defs>
      <path id="m421d8bc9c2" d="M 0 3 
C 0.795609 3 1.55874 2.683901 2.12132 2.12132 
C 2.683901 1.55874 3 0.795609 3 0 
C 3 -0.795609 2.683901 -1.55874 2.12132 -2.12132 
C 1.55874 -2.683901 0.795609 -3 0 -3 
C -0.795609 -3 -1.55874 -2.683901 -2.12132 -2.12132 
C -2.683901 -1.55874 -3 -0.795609 -3 0 
C -3 0.795609 -2.683901 1.55874 -2.12132 2.12132 
C -1.55874 2.683901 -0.795609 3 0 3 
z
" style="stroke: #666666"/>
     </defs>
     <g>
      <use xlink:href="#m421d8bc9c2" x="608.2" y="187.567187" style="fill: #666666; stroke: #666666"/>
     </g>
    </g>
    <g id="text_23">
     <!-- $\mathdefault{12}$ -->
     <g transform="translate(626.2 191.067187)scale(0.1 -0.1)">
      <use xlink:href="#DejaVuSans-31" transform="translate(0 0.78125)"/>
      <use xlink:href="#DejaVuSans-32" transform="translate(63.623047 0.78125)"/>
     </g>
    </g>
   </g>
   <g id="legend_2">
    <g id="patch_8">
     <path d="M 596.2 197.146875 
L 641 197.146875 
Q 643 197.146875 643 195.146875 
L 643 93.4 
Q 643 91.4 641 91.4 
L 596.2 91.4 
Q 594.2 91.4 594.2 93.4 
L 594.2 195.146875 
Q 594.2 197.146875 596.2 197.146875 
z
" style="fill: #ffffff; opacity: 0.8; stroke: #cccccc; stroke-linejoin: miter"/>
    </g>
    <g id="text_24">
     <!-- Unit -->
     <g transform="translate(608.422656 102.998437)scale(0.1 -0.1)">
      <use xlink:href="#DejaVuSans-55"/>
      <use xlink:href="#DejaVuSans-6e" x="73.193359"/>
      <use xlink:href="#DejaVuSans-69" x="136.572266"/>
      <use xlink:href="#DejaVuSans-74" x="164.355469"/>
     </g>
    </g>
    <g id="line2d_21">
     <g>
      <use xlink:href="#m0967bfd0c0" x="608.2" y="114.176562" style="fill: #7fc97f; stroke: #7fc97f"/>
     </g>
    </g>
    <g id="text_25">
     <!-- $\mathdefault{1}$ -->
     <g transform="translate(626.2 117.676562)scale(0.1 -0.1)">
      <use xlink:href="#DejaVuSans-31" transform="translate(0 0.09375)"/>
     </g>
    </g>
    <g id="line2d_22">
     <g>
      <use xlink:href="#m0967bfd0c0" x="608.2" y="128.854687" style="fill: #7fc97f; stroke: #7fc97f"/>
     </g>
    </g>
    <g id="text_26">
     <!-- $\mathdefault{2}$ -->
     <g transform="translate(626.2 132.354687)scale(0.1 -0.1)">
      <use xlink:href="#DejaVuSans-32" transform="translate(0 0.78125)"/>
     </g>
    </g>
    <g id="line2d_23">
     <g>
      <use xlink:href="#m340343c090" x="608.2" y="143.532812" style="fill: #beaed4; stroke: #beaed4"/>
     </g>
    </g>
    <g id="text_27">
     <!-- $\mathdefault{3}$ -->
     <g transform="translate(626.2 147.032812)scale(0.1 -0.1)">
      <use xlink:href="#DejaVuSans-33" transform="translate(0 0.78125)"/>
     </g>
    </g>
    <g id="line2d_24">
     <g>
      <use xlink:href="#m3b20bdf635" x="608.2" y="158.210937" style="fill: #ffff99; stroke: #ffff99"/>
     </g>
    </g>
    <g id="text_28">
     <!-- $\mathdefault{6}$ -->
     <g transform="translate(626.2 161.710937)scale(0.1 -0.1)">
      <use xlink:href="#DejaVuSans-36" transform="translate(0 0.78125)"/>
     </g>
    </g>
    <g id="line2d_25">
     <g>
      <use xlink:href="#m439d0b574c" x="608.2" y="172.889062" style="fill: #f0027f; stroke: #f0027f"/>
     </g>
    </g>
    <g id="text_29">
     <!-- $\mathdefault{8}$ -->
     <g transform="translate(626.2 176.389062)scale(0.1 -0.1)">
      <use xlink:href="#DejaVuSans-38" transform="translate(0 0.78125)"/>
     </g>
    </g>
    <g id="line2d_26">
     <g>
      <use xlink:href="#m421d8bc9c2" x="608.2" y="187.567187" style="fill: #666666; stroke: #666666"/>
     </g>
    </g>
    <g id="text_30">
     <!-- $\mathdefault{12}$ -->
     <g transform="translate(626.2 191.067187)scale(0.1 -0.1)">
      <use xlink:href="#DejaVuSans-31" transform="translate(0 0.78125)"/>
      <use xlink:href="#DejaVuSans-32" transform="translate(63.623047 0.78125)"/>
     </g>
    </g>
   </g>
   <g id="legend_3">
    <g id="patch_9">
     <path d="M 596.2 197.146875 
L 641 197.146875 
Q 643 197.146875 643 195.146875 
L 643 93.4 
Q 643 91.4 641 91.4 
L 596.2 91.4 
Q 594.2 91.4 594.2 93.4 
L 594.2 195.146875 
Q 594.2 197.146875 596.2 197.146875 
z
" style="fill: #ffffff; opacity: 0.8; stroke: #cccccc; stroke-linejoin: miter"/>
    </g>
    <g id="text_31">
     <!-- Unit -->
     <g transform="translate(608.422656 102.998437)scale(0.1 -0.1)">
      <use xlink:href="#DejaVuSans-55"/>
      <use xlink:href="#DejaVuSans-6e" x="73.193359"/>
      <use xlink:href="#DejaVuSans-69" x="136.572266"/>
      <use xlink:href="#DejaVuSans-74" x="164.355469"/>
     </g>
    </g>
    <g id="line2d_27">
     <g>
      <use xlink:href="#m0967bfd0c0" x="608.2" y="114.176562" style="fill: #7fc97f; stroke: #7fc97f"/>
     </g>
    </g>
    <g id="text_32">
     <!-- $\mathdefault{1}$ -->
     <g transform="translate(626.2 117.676562)scale(0.1 -0.1)">
      <use xlink:href="#DejaVuSans-31" transform="translate(0 0.09375)"/>
     </g>
    </g>
    <g id="line2d_28">
     <g>
      <use xlink:href="#m0967bfd0c0" x="608.2" y="128.854687" style="fill: #7fc97f; stroke: #7fc97f"/>
     </g>
    </g>
    <g id="text_33">
     <!-- $\mathdefault{2}$ -->
     <g transform="translate(626.2 132.354687)scale(0.1 -0.1)">
      <use xlink:href="#DejaVuSans-32" transform="translate(0 0.78125)"/>
     </g>
    </g>
    <g id="line2d_29">
     <g>
      <use xlink:href="#m340343c090" x="608.2" y="143.532812" style="fill: #beaed4; stroke: #beaed4"/>
     </g>
    </g>
    <g id="text_34">
     <!-- $\mathdefault{3}$ -->
     <g transform="translate(626.2 147.032812)scale(0.1 -0.1)">
      <use xlink:href="#DejaVuSans-33" transform="translate(0 0.78125)"/>
     </g>
    </g>
    <g id="line2d_30">
     <g>
      <use xlink:href="#m3b20bdf635" x="608.2" y="158.210937" style="fill: #ffff99; stroke: #ffff99"/>
     </g>
    </g>
    <g id="text_35">
     <!-- $\mathdefault{6}$ -->
     <g transform="translate(626.2 161.710937)scale(0.1 -0.1)">
      <use xlink:href="#DejaVuSans-36" transform="translate(0 0.78125)"/>
     </g>
    </g>
    <g id="line2d_31">
     <g>
      <use xlink:href="#m439d0b574c" x="608.2" y="172.889062" style="fill: #f0027f; stroke: #f0027f"/>
     </g>
    </g>
    <g id="text_36">
     <!-- $\mathdefault{8}$ -->
     <g transform="translate(626.2 176.389062)scale(0.1 -0.1)">
      <use xlink:href="#DejaVuSans-38" transform="translate(0 0.78125)"/>
     </g>
    </g>
    <g id="line2d_32">
     <g>
      <use xlink:href="#m421d8bc9c2" x="608.2" y="187.567187" style="fill: #666666; stroke: #666666"/>
     </g>
    </g>
    <g id="text_37">
     <!-- $\mathdefault{12}$ -->
     <g transform="translate(626.2 191.067187)scale(0.1 -0.1)">
      <use xlink:href="#DejaVuSans-31" transform="translate(0 0.78125)"/>
      <use xlink:href="#DejaVuSans-32" transform="translate(63.623047 0.78125)"/>
     </g>
    </g>
   </g>
  </g>
 </g>
 <defs>
  <clipPath id="p1fba5fee66">
   <rect x="90" y="86.4" width="558" height="554.4"/>
  </clipPath>
 </defs>
</svg>
